<svg version="1.1" xmlns="http://www.w3.org/2000/svg" xmlns:xlink="http://www.w3.org/1999/xlink" width="1560" height="804"><defs/><g><path fill="none" stroke="#02063B" paint-order="fill stroke markers" d=" M 20 470.66095431514054 L 21 473.9957940508187 L 22 477.3163519765607 L 23 480.62196939309393 L 24 483.9119905648953 L 25 487.1857628502698 L 26 490.4426368308151 L 27 493.68196644024647 L 28 496.9031090925571 L 29 500.10542580948805 L 30 503.28828134728224 L 31 506.4510443226978 L 32 509.59308733825577 L 33 512.7137871066967 L 34 515.8125245746226 L 35 518.888685045298 L 36 521.941658300588 L 37 524.9708387220066 L 38 527.9756254108543 L 39 530.9554223074172 L 40 533.909638309208 L 41 536.8376873882237 L 42 539.7389887071945 L 43 542.6129667348057 L 44 545.4590513598655 L 45 548.276678004398 L 46 551.0652877356385 L 47 553.8243273769097 L 48 556.5532496173537 L 49 559.251513120504 L 50 561.9185826316697 L 51 564.5539290841134 L 52 567.157029704003 L 53 569.7273681141144 L 54 572.2644344362644 L 55 574.7677253924564 L 56 577.236744404715 L 57 579.6710016935921 L 58 582.070014375325 L 59 584.4333065576257 L 60 586.7604094340838 L 61 589.050861377164 L 62 591.304208029778 L 63 593.520002395417 L 64 595.6978049268212 L 65 597.8371836131731 L 66 599.937714065796 L 67 601.9989796023393 L 68 604.0205713294364 L 69 606.0020882238164 L 70 607.9431372118553 L 71 609.8433332475504 L 72 611.7022993889013 L 73 613.5196668726844 L 74 615.2950751876041 L 75 617.0281721458075 L 76 618.7186139527485 L 77 620.3660652753853 L 78 621.9701993087014 L 79 623.5306978405335 L 80 625.0472513146954 L 81 626.5195588923842 L 82 627.9473285118586 L 83 629.3302769463745 L 84 630.6681298603688 L 85 631.9606218638797 L 86 633.2074965651918 L 87 634.4085066216967 L 88 635.563413788958 L 89 636.6719889679727 L 90 637.7340122506166 L 91 638.7492729632681 L 92 639.7175697085997 L 93 640.6387104055284 L 94 641.5125123273195 L 95 642.338802137834 L 96 643.1174159259132 L 97 643.8481992378936 L 98 644.5310071082465 L 99 645.1657040883341 L 100 645.7521642732786 L 101 646.2902713269386 L 102 646.7799185049859 L 103 647.2210086760806 L 104 647.6134543411395 L 105 647.9571776506924 L 106 648.2521104203264 L 107 648.4981941442103 L 108 648.6953800067013 L 109 648.8436288920279 L 110 648.9429113920502 L 111 648.9932078120927 L 112 648.9945081748515 L 113 648.9468122223736 L 114 648.8501294161081 L 115 648.7044789350288 L 116 648.5098896718303 L 117 648.2664002271963 L 118 647.9740589021425 L 119 647.6329236884346 L 120 647.2430622570855 L 121 646.8045519449303 L 122 646.3174797392855 L 123 645.7819422606938 L 124 645.1980457437561 L 125 644.5659060160596 L 126 643.8856484751991 L 127 643.1574080639037 L 128 642.3813292432669 L 129 641.5575659640904 L 130 640.6862816363445 L 131 639.7676490967532 L 132 638.8018505745079 L 133 637.7890776551185 L 134 636.7295312424094 L 135 635.6234215186652 L 136 634.4709679029373 L 137 633.2723990075178 L 138 632.0279525925899 L 139 630.7378755190625 L 140 629.4024236996011 L 141 628.0218620478624 L 142 626.5964644259434 L 143 625.1265135900546 L 144 623.6123011344305 L 145 622.054127433486 L 146 620.4523015822302 L 147 618.8071413349526 L 148 617.1189730421888 L 149 615.3881315859833 L 150 613.6149603134583 L 151 611.7998109687044 L 152 609.9430436230047 L 153 608.0450266034077 L 154 606.1061364196621 L 155 604.126757689529 L 156 602.107283062484 L 157 600.0481131418292 L 158 597.9496564052233 L 159 595.8123291236541 L 160 593.6365552788609 L 161 591.4227664792305 L 162 589.1714018741783 L 163 586.8829080670347 L 164 584.5577390264517 L 165 582.1963559963501 L 166 579.7992274044213 L 167 577.3668287692067 L 168 574.8996426057673 L 169 572.3981583299692 L 170 569.8628721613961 L 171 567.2942870249161 L 172 564.6929124509147 L 173 562.0592644742206 L 174 559.3938655317392 L 175 556.6972443588166 L 176 553.969935884355 L 177 551.2124811246983 L 178 548.4254270763104 L 179 545.6093266072686 L 180 542.7647383475897 L 181 539.8922265784157 L 182 536.9923611200765 L 183 534.0657172190549 L 184 531.1128754338755 L 185 528.1344215199382 L 186 525.1309463133225 L 187 522.1030456135833 L 188 519.0513200655621 L 189 515.9763750402368 L 190 512.8788205146344 L 191 509.75927095083 L 192 506.61834517405555 L 193 503.4566662499436 L 194 500.27486136093 L 195 497.07356168183924 L 196 493.8534022546785 L 197 490.6150218626644 L 198 487.3590629035073 L 199 484.0861712619792 L 200 480.79699618178904 L 201 477.4921901367926 L 202 474.172408701561 L 203 470.8383104213345 L 204 467.49055668138675 L 205 464.12981157582567 L 206 460.7567417758571 L 207 457.3720163975375 L 208 453.9763068690408 L 209 450.5702867974676 L 210 447.1546318352215 L 211 443.73001954598 L 212 440.29712927028606 L 213 436.8566419907872 L 214 433.4092401971492 L 215 429.9556077506703 L 216 426.49642974862377 L 217 423.03239238835505 L 218 419.56418283116074 L 219 416.0924890659764 L 220 412.6179997729002 L 221 409.1414041865793 L 222 405.66339195948626 L 223 402.18465302511294 L 224 398.7058774611081 L 225 395.22775535238657 L 226 391.7509766542376 L 227 388.2762310554576 L 228 384.8042078415371 L 229 381.3355957579271 L 230 377.8710828734122 L 231 374.4113564436189 L 232 370.95710277468424 L 233 367.5090070871134 L 234 364.0677533798525 L 235 360.6340242946035 L 236 357.2085009804087 L 237 353.79186295853117 L 238 350.38478798765794 L 239 346.98795192945306 L 240 343.60202861448687 L 241 340.22768970856816 L 242 336.8656045795059 L 243 333.5164401643265 L 244 330.18086083697375 L 245 326.8595282765166 L 246 323.553101335892 L 247 320.26223591120834 L 248 316.9875848116351 L 249 313.729797629905 L 250 310.48952061345483 L 251 307.2673965362283 L 252 304.06406457116975 L 253 300.8801601634311 L 254 297.71631490431866 L 255 294.573156406004 L 256 291.4513081770249 L 257 288.3513894985997 L 258 285.27401530178054 L 259 282.21979604546937 L 260 279.18933759532115 L 261 276.18324110355854 L 262 273.2021028897207 L 263 270.2465143223721 L 264 267.3170617017921 L 265 264.4143261436708 L 266 261.5388834638329 L 267 258.6913040640136 L 268 255.87215281870718 L 269 253.08198896311342 L 270 250.32136598220188 L 271 247.59083150091695 L 272 244.8909271755457 L 273 242.2221885862692 L 274 239.58514513091984 L 275 236.9803199199642 L 276 234.4082296727339 L 277 231.8693846149238 L 278 229.36428837737864 L 279 226.89343789618763 L 280 224.45732331410727 L 281 222.05642788333174 L 282 219.69122786962998 L 283 217.36219245786904 L 284 215.06978365894173 L 285 212.81445621811733 L 286 210.59665752483428 L 287 208.41682752395062 L 288 206.27539862847317 L 289 204.17279563377878 L 290 202.10943563334837 L 291 200.0857279360274 L 292 198.10207398483206 L 293 196.15886727731404 L 294 194.25649328750347 L 295 192.39532938944126 L 296 190.57574478232047 L 297 188.79810041724738 L 298 187.0627489256403 L 299 185.37003454927736 L 300 183.72029307200998 L 301 182.11385175315266 L 302 180.55102926256535 L 303 179.03213561743794 L 304 177.5574721207931 L 305 176.12733130171603 L 306 174.74199685732592 L 307 173.40174359649856 L 308 172.10683738535283 L 309 170.85753509451075 L 310 169.65408454814167 L 311 168.49672447480205 L 312 167.3856844600781 L 313 166.3211849010436 L 314 165.30343696253908 L 315 164.33264253528358 L 316 163.40899419582513 L 317 162.53267516833967 L 318 161.7038592882846 L 319 160.9227109679153 L 320 160.1893851636703 L 321 159.50402734543297 L 322 158.8667734676743 L 323 158.2777499424839 L 324 157.7370736144933 L 325 157.24485173769784 L 326 156.80118195418038 L 327 156.4061522747422 L 328 156.0598410614442 L 329 155.76231701206234 L 330 155.51363914645995 L 331 155.31385679488 L 332 155.16300958815935 L 333 155.0611274498674 L 334 155.00823059036995 L 335 155.00432950282013 L 336 155.04942496107697 L 337 155.1435080195517 L 338 155.28656001498243 L 339 155.47855257013632 L 340 155.71944759943887 L 341 156.0091973165288 L 342 156.34774424373754 L 343 156.7350212234911 L 344 157.17095143163195 L 345 157.65544839265897 L 346 158.1884159968811 L 347 158.76974851948324 L 348 159.3993306414983 L 349 160.07703747268346 L 350 160.8027345762943 L 351 161.57627799575351 L 352 162.39751428320696 L 353 163.26628052996367 L 354 164.18240439881166 L 355 165.1457041582048 L 356 166.15598871831267 L 357 167.2130576689271 L 358 168.3167013192178 L 359 169.4667007393282 L 360 170.6628278038053 L 361 171.90484523685222 L 362 173.1925066593973 L 363 174.52555663796755 L 364 175.90373073535983 L 365 177.32675556309658 L 366 178.79434883565844 L 367 180.3062194264807 L 368 181.8620674257048 L 369 183.46158419967063 L 370 185.1044524521411 L 371 186.7903462872433 L 372 188.51893127411736 L 373 190.2898645132567 L 374 192.10279470452988 L 375 193.9573622168671 L 376 195.85319915960108 L 377 197.7899294554449 L 378 199.76716891509514 L 379 201.78452531344277 L 380 203.84159846737924 L 381 205.93798031518128 L 382 208.07325499745716 L 383 210.2469989396417 L 384 212.45878093601993 L 385 214.70816223526631 L 386 216.99469662747882 L 387 219.31793053269476 L 388 221.67740309086622 L 389 224.0726462532822 L 390 226.50318487541418 L 391 228.96853681117187 L 392 231.46821300854523 L 393 234.00171760661902 L 394 236.56854803393554 L 395 239.168195108191 L 396 241.80014313724072 L 397 244.46387002139846 L 398 247.15884735700388 L 399 249.88454054124335 L 400 252.64040887819797 L 401 255.42590568610254 L 402 258.24047840578976 L 403 261.0835687103027 L 404 263.9546126156487 L 405 266.8530405926779 L 406 269.7782776800609 L 407 272.7297435983429 L 408 275.7068528650548 L 409 278.7090149108546 L 410 281.7356341966794 L 411 284.7861103318818 L 412 287.8598381933301 L 413 290.95620804544586 L 414 294.07460566115816 L 415 297.2144124437467 L 416 300.3750055495541 L 417 303.55575801153816 L 418 306.7560388636447 L 419 309.97521326597086 L 420 313.2126426307 L 421 316.4676847487765 L 422 319.73969391730276 L 423 323.0280210676256 L 424 326.3320138940935 L 425 329.6510169834532 L 426 332.9843719448653 L 427 336.33141754050826 L 428 339.6914898167485 L 429 343.0639222358497 L 430 346.4480458081925 L 431 349.84318922498346 L 432 353.24867899142123 L 433 356.66383956029927 L 434 360.08799346601256 L 435 363.5204614589482 L 436 366.9605626402263 L 437 370.407614596772 L 438 373.8609335366838 L 439 377.3198344248791 L 440 380.7836311189832 L 441 384.25163650544084 L 442 387.7231626358174 L 443 391.19752086326895 L 444 394.6740219791473 L 445 398.1519763497204 L 446 401.63069405297307 L 447 405.1094850154686 L 448 408.5876591492369 L 449 412.0645264886693 L 450 415.53939732738513 L 451 419.0115823550499 L 452 422.48039279411404 L 453 425.9451405364447 L 454 429.40513827982704 L 455 432.8596996643031 L 456 436.3081394083266 L 457 439.74977344470057 L 458 443.18391905627743 L 459 446.6098950113882 L 460 450.02702169897975 L 461 453.434621263428 L 462 456.8320177390058 L 463 460.21853718397216 L 464 463.5935078142644 L 465 466.95626013675803 L 466 470.3061270820758 L 467 473.6424441369126 L 468 476.96454947585687 L 469 480.271784092675 L 470 483.56349193104035 L 471 486.8390200146733 L 472 490.09771857687406 L 473 493.3389411894152 L 474 496.5620448907752 L 475 499.7663903136814 L 476 502.9513418119421 L 477 506.11626758653995 L 478 509.26053981096106 L 479 512.3835347557381 L 480 515.4846329121782 L 481 518.5632191152566 L 482 521.6186826656451 L 483 524.6504174508585 L 484 527.6578220654873 L 485 530.6402999304999 L 486 533.597259411585 L 487 536.5281139365154 L 488 539.4322821115047 L 489 542.3091878365402 L 490 545.1582604196623 L 491 547.9789346901738 L 492 550.7706511107523 L 493 553.532855888446 L 494 556.265001084529 L 495 558.9665447231971 L 496 561.6369508990781 L 497 564.275689883541 L 498 566.8822382297764 L 499 569.4560788766344 L 500 571.9967012511934 L 501 574.503601370042 L 502 576.9762819392554 L 503 579.4142524530417 L 504 581.8170292910462 L 505 584.1841358142846 L 506 586.5151024596956 L 507 588.8094668332875 L 508 591.0667738018635 L 509 593.2865755833061 L 510 595.4684318354045 L 511 597.6119097432045 L 512 599.7165841048665 L 513 601.7820374160121 L 514 603.8078599525461 L 515 605.7936498519313 L 516 607.7390131929078 L 517 609.643564073634 L 518 611.5069246882391 L 519 613.3287254017671 L 520 615.1086048235028 L 521 616.8462098786595 L 522 618.5411958784191 L 523 620.1932265883088 L 524 621.8019742948983 L 525 623.3671198708098 L 526 624.8883528380226 L 527 626.3653714294626 L 528 627.7978826488644 L 529 629.1856023288923 L 530 630.5282551875111 L 531 631.8255748825936 L 532 633.077304064755 L 533 634.2831944284032 L 534 635.4430067609951 L 535 636.5565109904896 L 536 637.6234862309866 L 537 638.6437208265445 L 538 639.6170123931659 L 539 640.543167858945 L 540 641.422003502367 L 541 642.2533449887536 L 542 643.0370274048445 L 543 643.7728952915124 L 544 644.4608026746012 L 545 645.1006130938821 L 546 645.6921996301245 L 547 646.2354449302721 L 548 646.7302412307226 L 549 647.1764903787044 L 550 647.5741038517476 L 551 647.923002775244 L 552 648.2231179380933 L 553 648.4743898064329 L 554 648.6767685354475 L 555 648.8302139792565 L 556 648.9346956988782 L 557 648.9901929682676 L 558 648.996694778428 L 559 648.9541998395953 L 560 648.8627165814926 L 561 648.7222631516594 L 562 648.5328674118509 L 563 648.2945669325114 L 564 648.0074089853209 L 565 647.6714505338185 L 566 647.2867582221022 L 567 646.8534083616087 L 568 646.3714869159753 L 569 645.841089483988 L 570 645.2623212806168 L 571 644.6352971161446 L 572 643.9601413733917 L 573 643.2369879830434 L 574 642.4659803970802 L 575 641.647271560323 L 576 640.781023880092 L 577 639.8674091939911 L 578 638.9066087358196 L 579 637.8988130996217 L 580 636.8442222018772 L 581 635.7430452418452 L 582 634.5955006600644 L 583 633.4018160950219 L 584 632.1622283379953 L 585 630.8769832860817 L 586 629.546335893418 L 587 628.170550120607 L 588 626.7498988823535 L 589 625.284663993328 L 590 623.7751361122624 L 591 622.2216146842923 L 592 620.6244078815549 L 593 618.9838325420588 L 594 617.3002141068314 L 595 615.5738865553615 L 596 613.805192339348 L 597 611.9944823147671 L 598 610.1421156722739 L 599 608.2484598659494 L 600 606.3138905404081 L 601 604.3387914562817 L 602 602.3235544140927 L 603 600.2685791765326 L 604 598.1742733891617 L 605 596.0410524995427 L 606 593.86933967483 L 607 591.6595657178257 L 608 589.412168981521 L 609 587.127595282139 L 610 584.8062978107005 L 611 582.4487370431224 L 612 580.0553806488743 L 613 577.6267033982057 L 614 575.1631870679669 L 615 572.6653203460386 L 616 570.1335987343906 L 617 567.5685244507894 L 618 564.9706063291721 L 619 562.340359718711 L 620 559.6783063815824 L 621 556.9849743894646 L 622 554.2608980187842 L 623 551.5066176447328 L 624 548.7226796340715 L 625 545.909636236749 L 626 543.06804547635 L 627 540.1984710394026 L 628 537.3014821635584 L 629 534.3776535246724 L 630 531.4275651228047 L 631 528.4518021671668 L 632 525.4509549600326 L 633 522.4256187796412 L 634 519.3763937621094 L 635 516.3038847823849 L 636 513.2087013342564 L 637 510.0914574094485 L 638 506.95277137582264 L 639 503.79326585471387 L 640 500.61356759741983 L 641 497.4143073608724 L 642 494.19611978251487 L 643 490.95964325440724 L 644 487.7055197965907 L 645 484.4343949297287 L 646 481.1469175470554 L 647 477.8437397856535 L 648 474.52551689709173 L 649 471.1929071174414 L 650 467.8465715367025 L 651 464.48717396766193 L 652 461.1153808142151 L 653 457.7318609391698 L 654 454.33728553156476 L 655 450.93232797352414 L 656 447.51766370668105 L 657 444.09397009818866 L 658 440.66192630635163 L 659 437.2222131458996 L 660 433.7755129529367 L 661 430.3225094495846 L 662 426.8638876083535 L 663 423.4003335162624 L 664 419.9325342387423 L 665 416.46117768334165 L 666 412.98695246326616 L 667 409.5105477607794 L 668 406.03265319048734 L 669 402.55395866254275 L 670 399.07515424578537 L 671 395.5969300308542 L 672 392.11997599329214 L 673 388.6449818566783 L 674 385.17263695580573 L 675 381.7036300999387 L 676 378.2386494361722 L 677 374.77838231292634 L 678 371.3235151435957 L 679 367.874733270386 L 680 364.4327208283611 L 681 360.9981606097337 L 682 357.5717339284181 L 683 354.1541204848787 L 684 350.7459982312962 L 685 347.34804323708465 L 686 343.96092955477764 L 687 340.5853290863174 L 688 337.22191144976944 L 689 333.8713438464889 L 690 330.53429092877053 L 691 327.2114146679994 L 692 323.903374223337 L 693 320.61082581096167 L 694 317.33442257389765 L 695 314.0748144524494 L 696 310.8326480552738 L 697 307.60856653111045 L 698 304.40320944120305 L 699 301.2172126324275 L 700 298.05120811116024 L 701 294.9058239179051 L 702 291.7816840027115 L 703 288.6794081013996 L 704 285.59961161262447 L 705 282.5429054757974 L 706 279.5098960498965 L 707 276.5011849931815 L 708 273.51736914384344 L 709 270.55904040160874 L 710 267.62678561032567 L 711 264.7211864415512 L 712 261.8428192791648 L 713 258.9922551050315 L 714 256.17005938573493 L 715 253.3767919604076 L 716 250.6130069296744 L 717 247.8792525457362 L 718 245.17607110361152 L 719 242.50399883356377 L 720 239.86356579472758 L 721 237.25529576996186 L 722 234.6797061619455 L 723 232.13730789054205 L 724 229.62860529144746 L 725 227.15409601614544 L 726 224.714270933187 L 727 222.30961403081898 L 728 219.94060232097365 L 729 217.60770574464473 L 730 215.31138707866384 L 731 213.05210184390128 L 732 210.83029821490302 L 733 208.64641693098704 L 734 206.5008912088126 L 735 204.39414665644475 L 736 202.32660118892528 L 737 200.29866494537126 L 738 198.3107402076158 L 739 196.36322132040655 L 740 194.45649461318098 L 741 192.59093832342904 L 742 190.76692252166285 L 743 188.9848090380047 L 744 187.2449513904123 L 745 185.54769471455037 L 746 183.8933756953266 L 747 182.28232250010257 L 748 180.7148547135963 L 749 179.19128327448567 L 750 177.71191041372754 L 751 176.2770295946037 L 752 174.88692545450752 L 753 173.54187374847973 L 754 172.24214129450723 L 755 170.98798592059362 L 756 169.779656413615 L 757 168.61739246996734 L 758 167.5014246480181 L 759 166.43197432237042 L 760 165.40925363994853 L 761 164.4334654779151 L 762 163.5048034034256 L 763 162.623451635231 L 764 161.78958500713355 L 765 161.00336893330592 L 766 160.26495937547728 L 767 159.57450281199547 L 768 158.9321362087698 L 769 158.33798699210152 L 770 157.79217302340598 L 771 157.2948025758326 L 772 156.84597431278644 L 773 156.44577726835672 L 774 156.09429082965488 L 775 155.79158472106664 L 776 155.53771899042064 L 777 155.33274399707702 L 778 155.1767004019373 L 779 155.06961915937873 L 780 155.01152151111373 L 781 155.00241898197623 L 782 155.04231337763554 L 783 155.13119678423794 L 784 155.2690515699768 L 785 155.45585038859016 L 786 155.69155618478527 L 787 155.9761222015893 L 788 156.30949198962463 L 789 156.69159941830674 L 790 157.12236868896224 L 791 157.6017143498654 L 792 158.12954131318892 L 793 158.705744873867 L 794 159.33021073036497 L 795 160.00281500735386 L 796 160.7234242802833 L 797 161.49189560184922 L 798 162.3080765303499 L 799 163.1718051599262 L 800 164.0829101526784 L 801 165.0412107726554 L 802 166.0465169217062 L 803 167.09862917719036 L 804 168.1973388315373 L 805 169.3424279336479 L 806 170.53366933212902 L 807 171.7708267203537 L 808 173.0536546833375 L 809 174.38189874642114 L 810 175.75529542575137 L 811 177.1735722805473 L 812 178.63644796714507 L 813 180.14363229480784 L 814 181.6948262832915 L 815 183.28972222215234 L 816 184.92800373178835 L 817 186.60934582619913 L 818 188.33341497745408 L 819 190.0998691818532 L 820 191.9083580277712 L 821 193.75852276516818 L 822 195.64999637675595 L 823 197.58240365080172 L 824 199.55536125555997 L 825 201.56847781531332 L 826 203.6213539880109 L 827 205.71358254448438 L 828 207.84474844923093 L 829 210.0144289427435 L 830 212.22219362537373 L 831 214.46760454271111 L 832 216.7502162724585 L 833 219.06957601279163 L 834 221.42522367218103 L 835 223.81669196066133 L 836 226.24350648252604 L 837 228.7051858304345 L 838 231.20124168090808 L 839 233.73117889120036 L 840 236.29449559751654 L 841 238.89068331456963 L 842 241.51922703644777 L 843 244.17960533877763 L 844 246.87129048215726 L 845 249.59374851684518 L 846 252.3464393886791 L 847 255.12881704620833 L 848 257.9403295490115 L 849 260.7804191771866 L 850 263.64852254198536 L 851 266.54407069757394 L 852 269.4664892538926 L 853 272.41519849059887 L 854 275.3896134720667 L 855 278.3891441634193 L 856 281.4131955475764 L 857 284.46116774328505 L 858 287.53245612412013 L 859 290.6264514384229 L 860 293.7425399301601 L 861 296.8801034606725 L 862 300.03851963129637 L 863 303.21716190682827 L 864 306.4153997398122 L 865 309.6325986956192 L 866 312.86812057830156 L 867 316.1213235571911 L 868 319.3915622942207 L 869 322.67818807193777 L 870 325.9805489221919 L 871 329.2979897554648 L 872 332.62985249082254 L 873 335.97547618645626 L 874 339.334197170795 L 875 342.7053491741574 L 876 346.08826346092155 L 877 349.48226896217926 L 878 352.8866924088579 L 879 356.3008584652765 L 880 359.7240898631115 L 881 363.15570753574826 L 882 366.5950307529851 L 883 370.04137725607154 L 884 373.49406339304676 L 885 376.95240425435793 L 886 380.41571380872284 L 887 383.8833050392197 L 888 387.3544900795701 L 889 390.82858035059246 L 890 394.30488669679335 L 891 397.7827195230766 L 892 401.26138893153774 L 893 404.7402048583208 L 894 408.2184772105036 L 895 411.69551600299326 L 896 415.1706314953979 L 897 418.6431343288521 L 898 422.1123356627623 L 899 425.57754731145417 L 900 429.0380818806874 L 901 432.4932529040138 L 902 435.9423749789534 L 903 439.38476390295517 L 904 442.81973680912415 L 905 446.2466123016807 L 906 449.664710591131 L 907 453.0733536291142 L 908 456.4718652429087 L 909 459.85957126956356 L 910 463.2357996896343 L 911 466.59988076048853 L 912 469.9511471491647 L 913 473.28893406475004 L 914 476.612579390257 L 915 479.9214238139648 L 916 483.2148109602088 L 917 486.4920875195852 L 918 489.7526033785492 L 919 492.99571174837615 L 920 496.22076929346633 L 921 499.4271362589628 L 922 502.61417659766124 L 923 505.7812580961803 L 924 508.9277525003752 L 925 512.0530356399644 L 926 515.1564875523457 L 927 518.23749260558 L 928 521.2954396205116 L 929 524.32972199201 L 930 527.3397378093007 L 931 530.3248899753681 L 932 533.2845863253999 L 933 536.2182397442554 L 934 539.1252682829315 L 935 542.0050952740053 L 936 544.8571494460256 L 937 547.6808650368368 L 938 550.4756819058096 L 939 553.2410456449566 L 940 555.9764076889082 L 941 558.6812254237338 L 942 561.3549622945786 L 943 563.9970879121015 L 944 566.6070781576866 L 945 569.1844152874143 L 946 571.7285880347648 L 947 574.2390917120401 L 948 576.7154283104763 L 949 579.1571065990357 L 950 581.5636422218513 L 951 583.9345577943086 L 952 586.2693829977454 L 953 588.5676546727473 L 954 590.8289169110259 L 955 593.0527211458565 L 956 595.2386262410616 L 957 597.3861985785179 L 958 599.4950121441731 L 959 601.5646486125548 L 960 603.5946974297549 L 961 605.5847558948685 L 962 607.53442923988 L 963 609.4433307079721 L 964 611.3110816302476 L 965 613.1373115008454 L 966 614.9216580504375 L 967 616.6637673180928 L 968 618.363293721493 L 969 620.0199001254846 L 970 621.6332579089568 L 971 623.2030470300303 L 972 624.7289560895442 L 973 626.2106823928281 L 974 627.6479320097469 L 975 629.0404198330091 L 976 630.3878696347224 L 977 631.69001412119 L 978 632.9465949859326 L 979 634.1573629609297 L 980 635.3220778660663 L 981 636.4405086567775 L 982 637.5124334698811 L 983 638.5376396675883 L 984 639.5159238796847 L 985 640.4470920438733 L 986 641.3309594442702 L 987 642.1673507480466 L 988 642.95610004021 L 989 643.6970508565166 L 990 644.390056214509 L 991 645.0349786426731 L 992 645.6316902077087 L 993 646.1800725399072 L 994 646.680016856633 L 995 647.1314239839021 L 996 647.534204376056 L 997 647.8882781335244 L 998 648.193575018675 L 999 648.4500344697467 L 1000 648.6576056128629 L 1001 648.8162472721235 L 1002 648.9259279777734 L 1003 648.9866259724444 L 1004 648.9983292154716 L 1005 648.961035385282 L 1006 648.8747518798551 L 1007 648.7394958152549 L 1008 648.5552940222349 L 1009 648.3221830409157 L 1010 648.0402091135364 L 1011 647.709428175282 L 1012 647.3299058431866 L 1013 646.9017174031178 L 1014 646.4249477948417 L 1015 645.8996915951741 L 1016 645.3260529992183 L 1017 644.7041457996966 L 1018 644.0340933643769 L 1019 643.3160286116008 L 1020 642.5500939839158 L 1021 641.7364414198194 L 1022 640.875232323619 L 1023 639.9666375334142 L 1024 639.0108372872072 L 1025 638.0080211871498 L 1026 636.9583881619311 L 1027 635.8621464273165 L 1028 634.7195134448441 L 1029 633.5307158786861 L 1030 632.2959895506868 L 1031 631.0155793935805 L 1032 629.6897394024063 L 1033 628.3187325841218 L 1034 626.902830905431 L 1035 625.4423152388337 L 1036 623.9374753069094 L 1037 622.3886096248445 L 1038 620.7960254412168 L 1039 619.1600386770444 L 1040 617.4809738631194 L 1041 615.7591640756282 L 1042 613.9949508700806 L 1043 612.188684213555 L 1044 610.3407224152747 L 1045 608.4514320555318 L 1046 606.5211879129665 L 1047 604.5503728902245 L 1048 602.539377937998 L 1049 600.4886019774752 L 1050 598.3984518212054 L 1051 596.2693420923989 L 1052 594.1016951426786 L 1053 591.8959409682986 L 1054 589.6525171248455 L 1055 587.3718686404403 L 1056 585.0544479274577 L 1057 582.7007146927821 L 1058 580.3111358466149 L 1059 577.886185409854 L 1060 575.4263444200607 L 1061 572.9321008360382 L 1062 570.4039494410345 L 1063 567.8423917445917 L 1064 565.2479358830617 L 1065 562.6210965188079 L 1066 559.9623947381106 L 1067 557.2723579478 L 1068 554.5515197706337 L 1069 551.8004199394419 L 1070 549.0196041900617 L 1071 546.209624153078 L 1072 543.3710372443979 L 1073 540.5044065546741 L 1074 537.610300737607 L 1075 534.689293897139 L 1076 531.7419654735709 L 1077 528.7689001286159 L 1078 525.7706876294233 L 1079 522.7479227315845 L 1080 519.7012050611518 L 1081 516.6311389956895 L 1082 513.5383335443855 L 1083 510.42340222724073 L 1084 507.2869629533655 L 1085 504.12963789840387 L 1086 500.95205338111475 L 1087 497.7548397391273 L 1088 494.5386312039016 L 1089 491.3040657749149 L 1090 488.05178509310343 L 1091 484.7824343135791 L 1092 481.49666197764986 L 1093 478.19511988416934 L 1094 474.8784629602376 L 1095 471.5473491312858 L 1096 468.2024391905617 L 1097 464.84439666804917 L 1098 461.4738876988416 L 1099 458.09158089100373 L 1100 454.6981471929375 L 1101 451.29425976028733 L 1102 447.8805938224043 L 1103 444.4578265484034 L 1104 441.02663691283175 L 1105 437.5877055609813 L 1106 434.14171467386757 L 1107 430.6893478329075 L 1108 427.23128988431614 L 1109 423.7682268032544 L 1110 420.30084555775 L 1111 416.8298339724269 L 1112 413.35588059205907 L 1113 409.87967454498465 L 1114 406.40190540640384 L 1115 402.923263061586 L 1116 399.44443756901984 L 1117 395.96611902352475 L 1118 392.48899741935725 L 1119 389.0137625133354 L 1120 385.541103688014 L 1121 382.0717098149302 L 1122 378.60626911795293 L 1123 375.14546903675785 L 1124 371.6899960904627 L 1125 368.24053574144097 L 1126 364.79777225934697 L 1127 361.36238858537604 L 1128 357.93506619679175 L 1129 354.51648497173966 L 1130 351.1073230543806 L 1131 347.70825672036534 L 1132 344.3199602426847 L 1133 340.94310575791195 L 1134 337.57836313287186 L 1135 334.22639983175776 L 1136 330.88788078372886 L 1137 327.56346825100724 L 1138 324.2538216975029 L 1139 320.9595976580006 L 1140 317.6814496079168 L 1141 314.4200278336764 L 1142 311.1759793037092 L 1143 307.9499475401138 L 1144 304.74257249100407 L 1145 301.5544904035579 L 1146 298.3863336978074 L 1147 295.2387308411877 L 1148 292.11230622386256 L 1149 289.0076800348704 L 1150 285.92546813909166 L 1151 282.8662819550821 L 1152 279.83072833378816 L 1153 276.81940943816085 L 1154 273.83292262370736 L 1155 270.8718603199958 L 1156 267.9368099131294 L 1157 265.02835362923304 L 1158 262.14706841895145 L 1159 259.29352584300193 L 1160 256.4682919587961 L 1161 253.67192720814563 L 1162 250.9049863060934 L 1163 248.16801813086954 L 1164 245.46156561501263 L 1165 242.7861656376702 L 1166 240.14234891809363 L 1167 237.53063991036183 L 1168 234.95155669934687 L 1169 232.40561089793698 L 1170 229.89330754555314 L 1171 227.41514500795964 L 1172 224.9716148784055 L 1173 222.5632018801086 L 1174 220.19038377009775 L 1175 217.85363124444154 L 1176 215.55340784487825 L 1177 213.29016986685895 L 1178 211.06436626903673 L 1179 208.87643858420267 L 1180 206.7268208317009 L 1181 204.6159394313336 L 1182 202.54421311876877 L 1183 200.51205286247736 L 1184 198.51986178221105 L 1185 196.56803506903157 L 1186 194.65695990692078 L 1187 192.7870153959714 L 1188 190.95857247718652 L 1189 189.17199385889737 L 1190 187.4276339448095 L 1191 185.72583876370336 L 1192 184.0669459007896 L 1193 182.45128443074339 L 1194 180.87917485242718 L 1195 179.35092902531088 L 1196 177.86685010760948 L 1197 176.42723249614664 L 1198 175.03236176795266 L 1199 173.68251462361727 L 1200 172.3779588323982 L 1201 171.11895317910486 L 1202 169.905747412764 L 1203 168.73858219707506 L 1204 167.6176890626709 L 1205 166.54329036118966 L 1206 165.51559922116488 L 1207 164.53481950574948 L 1208 163.6011457722735 L 1209 162.71476323365067 L 1210 161.8758477216382 L 1211 161.08456565195547 L 1212 160.34107399127404 L 1213 159.6455202260785 L 1214 158.9980423334104 L 1215 158.39876875349796 L 1216 157.8478183642767 L 1217 157.34530045780775 L 1218 156.8913147185984 L 1219 156.4859512038264 L 1220 156.1292903254764 L 1221 155.8214028343879 L 1222 155.56234980622074 L 1223 155.35218262933952 L 1224 155.19094299461963 L 1225 155.0786628871769 L 1226 155.01536458002295 L 1227 155.00106062964667 L 1228 155.03575387352362 L 1229 155.11943742955287 L 1230 155.25209469742254 L 1231 155.43369936190243 L 1232 155.6642153980646 L 1233 155.94359707842918 L 1234 156.27178898203564 L 1235 156.6487260054368 L 1236 157.0743333756127 L 1237 157.5485266648042 L 1238 158.0712118072605 L 1239 158.6422851178987 L 1240 159.2616333128725 L 1241 159.92913353204347 L 1242 160.64465336335365 L 1243 161.4080508690919 L 1244 162.21917461404934 L 1245 163.07786369556072 L 1246 163.9839477754223 L 1247 164.9372471136809 L 1248 165.93757260429078 L 1249 166.98472581262448 L 1250 168.07849901483823 L 1251 169.21867523907733 L 1252 170.40502830851597 L 1253 171.63732288622566 L 1254 172.91531452185828 L 1255 174.23874970013662 L 1256 175.60736589114651 L 1257 177.02089160241232 L 1258 178.47904643275515 L 1259 179.98154112791525 L 1260 181.52807763793004 L 1261 183.11834917626112 L 1262 184.75204028064823 L 1263 186.4288268756905 L 1264 188.14837633713213 L 1265 189.91034755784355 L 1266 191.71439101548958 L 1267 193.56014884186308 L 1268 195.44725489387355 L 1269 197.37533482618252 L 1270 199.3440061654585 L 1271 201.35287838625155 L 1272 203.40155298846068 L 1273 205.4896235763825 L 1274 207.61667593933112 L 1275 209.78228813380366 L 1276 211.9860305671796 L 1277 214.2274660829428 L 1278 216.50615004739598 L 1279 218.8216304378665 L 1280 221.17344793237254 L 1281 223.561136000737 L 1282 225.9842209971374 L 1283 228.44222225405804 L 1284 230.9346521776444 L 1285 233.46101634442536 L 1286 236.02081359938998 L 1287 238.61353615540568 L 1288 241.23866969394584 L 1289 243.8956934671134 L 1290 246.58408040094628 L 1291 249.30329719996752 L 1292 252.05280445298013 L 1293 254.83205674006797 L 1294 257.6405027407886 L 1295 260.4775853435429 L 1296 263.34274175608743 L 1297 266.23540361717335 L 1298 269.15499710929714 L 1299 272.100943072523 L 1300 275.0726571193763 L 1301 278.0695497507661 L 1302 281.0910264729217 L 1303 284.1364879153282 L 1304 287.205329949617 L 1305 290.29694380941254 L 1306 293.41071621109086 L 1307 296.54602947543435 L 1308 299.7022616501656 L 1309 302.87878663332174 L 1310 306.07497429745183 L 1311 309.29019061462094 L 1312 312.52379778217596 L 1313 315.77515434927204 L 1314 319.04361534411487 L 1315 322.32853240190155 L 1316 325.6292538934412 L 1317 328.9451250544166 L 1318 332.2754881152673 L 1319 335.619682431677 L 1320 338.9770446156191 L 1321 342.3469086669589 L 1322 345.72860610556546 L 1323 349.1214661039157 L 1324 352.52481562017124 L 1325 355.9379795316876 L 1326 359.3602807689355 L 1327 362.7910404498172 L 1328 366.22957801432966 L 1329 369.67521135957304 L 1330 373.1272569750572 L 1331 376.5850300782869 L 1332 380.04784475060825 L 1333 383.5150140732676 L 1334 386.98585026368164 L 1335 390.4596648118703 L 1336 393.9357686170339 L 1337 397.4134721242552 L 1338 400.89208546128407 L 1339 404.3709185753849 L 1340 407.84928137022814 L 1341 411.3264838427782 L 1342 414.8018362201751 L 1343 418.27464909656265 L 1344 421.7442335698427 L 1345 425.20990137833843 L 1346 428.67096503732193 L 1347 432.1267379753882 L 1348 435.5765346706562 L 1349 439.0196707867492 L 1350 442.4554633085525 L 1351 445.8832306777006 L 1352 449.30229292777545 L 1353 452.7119718191974 L 1354 456.1115909737608 L 1355 459.5004760088133 L 1356 462.87795467103024 L 1357 466.2433569697673 L 1358 469.5960153099718 L 1359 472.9352646246108 L 1360 476.260442506598 L 1361 479.57088934020135 L 1362 482.8659484318845 L 1363 486.1449661405807 L 1364 489.40729200735365 L 1365 492.65227888442575 L 1366 495.8792830635588 L 1367 499.08766440374296 L 1368 502.27678645818 L 1369 505.4460166005404 L 1370 508.59472615045127 L 1371 511.72229049821317 L 1372 514.8280892287017 L 1373 517.9115062444371 L 1374 520.9719298878043 L 1375 524.0087530623824 L 1376 527.0213733533787 L 1377 530.0091931471284 L 1378 532.97161974964 L 1379 535.9080655041736 L 1380 538.8179479078112 L 1381 541.7006897270066 L 1382 544.5557191120955 L 1383 547.382469710728 L 1384 550.1803807802207 L 1385 552.9488972987899 L 1386 555.687470075648 L 1387 558.3955558599514 L 1388 561.0726174485632 L 1389 563.718123792616 L 1390 566.3315501028607 L 1391 568.9123779537638 L 1392 571.460095386352 L 1393 573.974197009768 L 1394 576.4541841015222 L 1395 578.8995647064287 L 1396 581.3098537341924 L 1397 583.6845730556349 L 1398 586.0232515975447 L 1399 588.3254254361195 L 1400 590.590637888999 L 1401 592.818439605855 L 1402 595.0083886575279 L 1403 597.1600506236954 L 1404 599.2729986790446 L 1405 601.3468136779449 L 1406 603.3810842375925 L 1407 605.3754068196148 L 1408 607.3293858101235 L 1409 609.2426335981909 L 1410 611.1147706527386 L 1411 612.9454255978292 L 1412 614.7342352863316 L 1413 616.4808448719623 L 1414 618.1849078796746 L 1415 619.8460862743877 L 1416 621.4640505280456 L 1417 623.0384796849835 L 1418 624.5690614255955 L 1419 626.0554921282913 L 1420 627.497476929724 L 1421 628.8947297832832 L 1422 630.2469735158377 L 1423 631.5539398827175 L 1424 632.8153696209275 L 1425 634.0310125005751 L 1426 635.2006273745105 L 1427 636.3239822261621 L 1428 637.4008542155607 L 1429 638.4310297235461 L 1430 639.4143043941419 L 1431 640.3504831750932 L 1432 641.2393803565599 L 1433 642.0808196079549 L 1434 642.8746340129245 L 1435 643.620666102458 L 1436 644.3187678861252 L 1437 644.9688008814344 L 1438 645.5706361413014 L 1439 646.12415427963 L 1440 646.6292454949946 L 1441 647.0858095924204 L 1442 647.4937560032606 L 1443 647.8530038031615 L 1444 648.1634817281155 L 1445 648.4251281885985 L 1446 648.6378912817863 L 1447 648.8017288018518 L 1448 648.9166082483362 L 1449 648.982506832597 L 1450 648.9994114823281 L 1451 648.9673188441532 L 1452 648.8862352842906 L 1453 648.7561768872911 L 1454 648.5771694528466 L 1455 648.3492484906725 L 1456 648.0724592134635 L 1457 647.746856527925 L 1458 647.3725050238811 L 1459 646.9494789614616 L 1460 646.477862256372 L 1461 645.9577484632457 L 1462 645.3892407570869 L 1463 644.7724519128029 L 1464 644.1075042828334 L 1465 643.3945297728791 L 1466 642.633669815736 L 1467 641.8250753432385 L 1468 640.9689067563206 L 1469 640.0653338931952 L 1470 639.1145359956654 L 1471 638.116701673566 L 1472 637.0720288673505 L 1473 635.980724808826 L 1474 634.8430059800428 L 1475 633.6590980703529 L 1476 632.4292359316383 L 1477 631.1536635317243 L 1478 629.8326339059839 L 1479 628.4664091071421 L 1480 627.0552601532929 L 1481 625.5994669741387 L 1482 624.0993183554582 L 1483 622.5551118818224 L 1484 620.9671538775608 L 1485 619.3357593459964 L 1486 617.6612519069602 L 1487 615.9439637325916 L 1488 614.1842354814471 L 1489 612.3824162309254 L 1490 610.538863408017 L 1491 608.6539427184059 L 1492 606.7280280739203 L 1493 604.7615015183621 L 1494 602.7547531517218 L 1495 600.7081810527909 L 1496 598.6221912001989 L 1497 596.4971973918764 L 1498 594.3336211629705 L 1499 592.1318917022271 L 1500 589.8924457668494 L 1501 587.6157275958599 L 1502 585.3021888219782 L 1503 582.9522883820271 L 1504 580.5664924258974 L 1505 578.1452742240739 L 1506 575.6891140737542 L 1507 573.1984992035742 L 1508 570.6739236769529 L 1509 568.1158882940866 L 1510 565.5249004926072 L 1511 562.9014742469171 L 1512 560.246129966238 L 1513 557.5593943913711 L 1514 554.8418004902117 L 1515 552.0938873520239 L 1516 549.316200080499 L 1517 546.509289685627 L 1518 543.6737129743888 L 1519 540.810032440304 L 1520 537.9188161518514 L 1521 535.0006376397771 L 1522 532.0560757833248 L 1523 529.085714695406 L 1524 526.0901436067244 L 1525 523.0699567488962 L 1526 520.0257532365666 L 1527 516.9581369485663 L 1528 513.8677164081216 L 1529 510.75510466213797 L 1530 507.62091915959104 L 1531 504.46578162904655 L 1532 501.2903179553218 L 1533 498.095158055336 L 1534 494.88093575314696 L 1535 491.6482886542227 L 1536 488.3978580189616 L 1537 485.1302886354807 L 1538 481.84622869171176 L 1539 478.5463296468221" stroke-linecap="round" stroke-linejoin="round" stroke-miterlimit="10" stroke-width="17"/></g></svg>