<?xml version="1.0" encoding="UTF-8" standalone="no"?>
<svg
   xmlns:dc="http://purl.org/dc/elements/1.1/"
   xmlns:cc="http://creativecommons.org/ns#"
   xmlns:rdf="http://www.w3.org/1999/02/22-rdf-syntax-ns#"
   xmlns:svg="http://www.w3.org/2000/svg"
   xmlns="http://www.w3.org/2000/svg"
   xmlns:xlink="http://www.w3.org/1999/xlink"
   xmlns:sodipodi="http://sodipodi.sourceforge.net/DTD/sodipodi-0.dtd"
   xmlns:inkscape="http://www.inkscape.org/namespaces/inkscape"
   width="752pt"
   height="752pt"
   version="1.1"
   viewBox="0 0 752 752"
   id="svg879"
   sodipodi:docname="Logo_work_in_progress.svg"
   inkscape:version="0.92.3 (2405546, 2018-03-11)">
  <metadata
     id="metadata885">
    <rdf:RDF>
      <cc:Work
         rdf:about="">
        <dc:format>image/svg+xml</dc:format>
        <dc:type
           rdf:resource="http://purl.org/dc/dcmitype/StillImage" />
        <dc:title />
      </cc:Work>
    </rdf:RDF>
  </metadata>
  <defs
     id="defs883">
    <linearGradient
       inkscape:collect="always"
       id="linearGradient4795">
      <stop
         style="stop-color:#005500;stop-opacity:1;"
         offset="0"
         id="stop4791" />
      <stop
         style="stop-color:#005500;stop-opacity:0"
         offset="1"
         id="stop4793" />
    </linearGradient>
    <linearGradient
       inkscape:collect="always"
       xlink:href="#linearGradient4795"
       id="linearGradient4797"
       x1="748.83783"
       y1="1.9560219"
       x2="162.29909"
       y2="696.08093"
       gradientUnits="userSpaceOnUse"
       gradientTransform="matrix(1.1380549,0,0,1.1380549,-4.8721643,-102.37395)" />
    <linearGradient
       inkscape:collect="always"
       xlink:href="#linearGradient4795"
       id="linearGradient991"
       gradientUnits="userSpaceOnUse"
       gradientTransform="matrix(1.1380549,0,0,1.1380549,1129.0371,-109.35203)"
       x1="748.83783"
       y1="1.9560219"
       x2="162.29909"
       y2="696.08093" />
  </defs>
  <sodipodi:namedview
     pagecolor="#ffffff"
     bordercolor="#666666"
     borderopacity="1"
     objecttolerance="10"
     gridtolerance="10"
     guidetolerance="10"
     inkscape:pageopacity="0"
     inkscape:pageshadow="2"
     inkscape:window-width="1920"
     inkscape:window-height="986"
     id="namedview881"
     showgrid="false"
     inkscape:zoom="0.30290321"
     inkscape:cx="-209.08819"
     inkscape:cy="73.324672"
     inkscape:window-x="2853"
     inkscape:window-y="1632"
     inkscape:window-maximized="1"
     inkscape:current-layer="svg879" />
  <g
     id="g999"
     transform="matrix(0.62847814,0,0,0.62847814,234.92842,71.869222)"
     inkscape:export-filename="G:\MAMP\htdocs\PhD-WS\MASTER\logo2.png"
     inkscape:export-xdpi="90"
     inkscape:export-ydpi="90">
    <circle
       inkscape:export-ydpi="90"
       inkscape:export-xdpi="90"
       inkscape:export-filename="G:\MAMP\htdocs\PhD-WS\MASTER\logo.png"
       r="373.42465"
       cy="380.48572"
       cx="371.62042"
       id="path4769"
       style="opacity:1;fill:url(#linearGradient4797);fill-opacity:1;stroke:none;stroke-width:2.15821385;stroke-miterlimit:4;stroke-dasharray:none;stroke-dashoffset:0;stroke-opacity:1" />
    <path
       inkscape:export-ydpi="90"
       inkscape:export-xdpi="90"
       inkscape:export-filename="G:\MAMP\htdocs\PhD-WS\MASTER\logo.png"
       inkscape:connector-curvature="0"
       id="circle4843"
       d="M 660.57506,145.56315 A 373.42465,373.42465 0 0 0 135.23517,91.6207 a 373.42465,373.42465 0 0 0 -20.79628,18.32824 373.42465,373.42465 0 0 1 507.74218,66.85762 373.42465,373.42465 0 0 1 -33.15056,507.01334 373.42465,373.42465 0 0 0 17.60095,-12.91593 373.42465,373.42465 0 0 0 53.9436,-525.34082 z"
       style="opacity:1;fill:#000080;fill-opacity:1;stroke:none;stroke-width:2.15821385;stroke-miterlimit:4;stroke-dasharray:none;stroke-dashoffset:0;stroke-opacity:1" />
  </g>
  <path
     inkscape:connector-curvature="0"
     id="path851"
     d="m 473.24783,369.37649 c -1.067,0.0313 -2.13051,-0.24522 -3.06422,-0.80831 -1.33043,-0.809 -2.27079,-2.132 -2.5826,-3.65876 -2.39937,-11.63884 -8.23486,-22.09679 -16.88007,-30.25125 l -3.4082,-3.21364 c -8.63818,-8.14503 -19.42404,-13.35951 -31.18679,-15.06837 -1.56795,-0.23347 -2.96629,-1.10957 -3.84695,-2.43121 -0.88046,-1.31538 -1.1606,-2.94043 -0.7755,-4.47834 0.23346,-0.92716 0.82878,-2.68794 2.21168,-4.15457 l 53.30945,-56.54044 c 8.07472,-8.67712 21.46391,-10.09738 31.18952,-3.33817 0.0736,0.0481 0.14085,0.0901 0.21442,0.13504 0.89832,0.5327 1.82694,1.24357 2.75392,2.11156 l 29.98271,28.27412 c 0.87871,0.82853 1.5782,1.65293 2.26555,2.48709 0.61628,0.77029 1.08905,1.46628 1.55241,2.16253 5.85848,9.53015 4.63452,21.53678 -2.81605,29.44532 l -53.31045,56.61606 c -1.43727,1.32695 -2.79713,2.08304 -4.23939,2.4929 -0.44508,0.13871 -0.90797,0.20571 -1.3693,0.21927 z m -46.06672,-62.02893 c 10.36612,3.02488 19.85139,8.44676 27.81472,15.95547 l 3.40822,3.21364 c 7.97946,7.52696 13.95606,16.69559 17.58224,26.89199 l 48.03464,-51.03658 0.004,-10e-5 c 3.9903,-4.23514 4.63959,-10.68052 1.5782,-15.66686 -0.21986,-0.32021 -0.51254,-0.76706 -0.86158,-1.20913 -0.34189,-0.41086 -0.73969,-0.90798 -1.25656,-1.39536 l -29.97298,-28.26155 c -0.46843,-0.44167 -0.73692,-0.60025 -0.76582,-0.62139 -0.12461,-0.0717 -0.24626,-0.14982 -0.36811,-0.23419 -0.16918,-0.0924 -0.33227,-0.19126 -0.48319,-0.30305 -5.18355,-3.66403 -12.36948,-2.90006 -16.70273,1.75347 z"
     style="stroke-width:0.80375487"
     inkscape:export-filename="G:\MAMP\htdocs\PhD-WS\MASTER\logo2.png"
     inkscape:export-xdpi="90"
     inkscape:export-ydpi="90" />
  <path
     inkscape:connector-curvature="0"
     id="path853"
     d="m 457.3246,425.40779 c -0.16005,0.004 -0.32654,0.004 -0.48707,-0.008 -1.65179,-0.0928 -3.17746,-0.91804 -4.16506,-2.24594 -13.08981,-17.56293 -27.83156,-34.06977 -43.81673,-49.05329 -15.45516,-14.4877 -32.2943,-27.74786 -50.04497,-39.41004 -1.38683,-0.91098 -2.29696,-2.38252 -2.48671,-4.02914 -0.19287,-1.64651 0.3526,-3.28642 1.48876,-4.49139 4.01473,-4.25781 8.54779,-7.98438 13.476,-11.08168 13.71211,-8.60073 30.31375,-12.0983 46.42283,-9.78221 14.08241,2.05818 26.96667,8.27549 37.27192,17.98615 l 3.37588,3.18316 c 10.29882,9.71086 17.26844,22.20525 20.15269,36.13278 4.54516,21.91651 -1.91442,44.73696 -17.28209,61.04139 -1.02027,1.0885 -2.42788,1.71412 -3.90607,1.75755 z m -86.50795,-96.14551 c 16.13601,11.03177 31.48083,23.35164 45.69547,36.66962 14.75476,13.82961 28.47455,28.9151 40.86864,44.91278 9.72959,-13.08238 13.51903,-29.8129 10.17043,-45.96943 -2.41579,-11.66407 -8.24822,-22.12453 -16.87051,-30.25473 l -3.37588,-3.18316 c -8.62227,-8.12377 -19.41015,-13.32534 -31.19596,-15.05201 -13.4599,-1.9446 -27.38595,0.99002 -38.86549,8.18103 -2.24205,1.41026 -4.3914,2.98424 -6.42678,4.69625 z"
     style="stroke-width:0.80375487"
     inkscape:export-filename="G:\MAMP\htdocs\PhD-WS\MASTER\logo2.png"
     inkscape:export-xdpi="90"
     inkscape:export-ydpi="90" />
  <path
     inkscape:connector-curvature="0"
     id="path855"
     d="m 525.13518,353.45844 c -1.43103,0.042 -2.8782,-0.46197 -4.00558,-1.52195 L 501.97281,333.8796 c -2.24847,-2.12013 -2.35259,-5.66324 -0.23247,-7.91172 2.12013,-2.2485 5.66324,-2.3526 7.91174,-0.23247 l 19.15678,18.05689 c 2.24848,2.12011 2.35259,5.66323 0.23247,7.91171 -1.05702,1.12102 -2.47504,1.71237 -3.90615,1.75443 z"
     style="stroke-width:0.80375487"
     inkscape:export-filename="G:\MAMP\htdocs\PhD-WS\MASTER\logo2.png"
     inkscape:export-xdpi="90"
     inkscape:export-ydpi="90" />
  <path
     inkscape:connector-curvature="0"
     id="path857"
     d="m 449.01765,281.71767 c -1.43103,0.042 -2.87818,-0.46197 -4.00556,-1.52195 L 425.8553,262.13883 c -2.24848,-2.12013 -2.35259,-5.66322 -0.23248,-7.91172 2.12013,-2.24848 5.66324,-2.3526 7.91173,-0.23248 l 19.15679,18.0569 c 2.24849,2.12011 2.35259,5.66323 0.23247,7.91172 -1.06006,1.12425 -2.47505,1.71238 -3.90616,1.75442 z"
     style="stroke-width:0.80375487"
     inkscape:export-filename="G:\MAMP\htdocs\PhD-WS\MASTER\logo2.png"
     inkscape:export-xdpi="90"
     inkscape:export-ydpi="90" />
  <path
     inkscape:connector-curvature="0"
     id="path859"
     d="m 573.43462,445.0336 c -3.35799,0.0987 -6.75031,-1.07688 -9.38293,-3.55319 l -0.004,-0.006 -61.94104,-58.38064 c -5.26577,-4.96514 -5.51337,-13.28499 -0.55101,-18.55696 l 38.68486,-41.03702 c 2.40336,-2.54886 5.65518,-4.01709 9.16069,-4.12009 l 0.01,-2.9e-4 c 3.50236,-0.10288 6.83452,1.16551 9.38659,3.56876 l 61.94106,58.38065 c 2.55199,2.40324 4.01404,5.65839 4.11705,9.16397 0.10288,3.50239 -1.16228,6.83759 -3.57197,9.38673 l -38.67584,41.04318 c -2.48562,2.63612 -5.80924,4.01214 -9.17382,4.111 z m -1.70718,-11.70662 c 0.78161,0.73088 2.0056,0.69492 2.73346,-0.0803 l 38.67905,-41.04328 c 0.47824,-0.50721 0.53373,-1.07734 0.52487,-1.37863 -0.009,-0.30126 -0.10102,-0.87334 -0.605,-1.34854 L 551.11878,331.0956 c -0.50406,-0.47833 -1.08038,-0.53049 -1.37853,-0.52173 -0.30128,0.009 -0.87334,0.10093 -1.34846,0.60814 L 509.70692,372.219 c -0.72793,0.77524 -0.69196,1.99915 0.0842,2.73333 z"
     style="stroke-width:0.80375487"
     inkscape:export-filename="G:\MAMP\htdocs\PhD-WS\MASTER\logo2.png"
     inkscape:export-xdpi="90"
     inkscape:export-ydpi="90" />
  <path
     inkscape:connector-curvature="0"
     id="path861"
     d="m 405.28664,286.50852 c -3.52745,0.10364 -6.88181,-1.17039 -9.44671,-3.58904 L 334.0016,224.61383 c -2.57153,-2.42471 -4.04041,-5.7016 -4.14093,-9.22922 -0.1,-3.53069 1.17968,-6.88835 3.60137,-9.45351 l 38.58621,-40.86446 c 4.99584,-5.28863 13.36871,-5.53779 18.66334,-0.54265 l 61.78041,58.25027 c 5.29176,4.99575 5.54083,13.3654 0.55422,18.66623 l 1.7e-4,0.006 -38.52778,40.92309 c -2.42175,2.56517 -5.69534,4.04023 -9.2227,4.14387 -1.6e-4,-0.006 -0.006,-0.006 -0.01,-0.006 z m -23.6896,-114.38697 c -0.51782,0.0154 -1.02673,0.22807 -1.40743,0.63188 l -38.5862,40.86448 c -0.49975,0.52352 -0.55746,1.12514 -0.54824,1.43895 0.009,0.3107 0.10206,0.91103 0.62873,1.40753 l 61.8384,58.30807 c 0.52649,0.49336 1.12498,0.55117 1.43879,0.54195 l 0.004,-1.2e-4 c 0.31069,-0.009 0.91103,-0.10206 1.40743,-0.63187 l 38.52823,-40.92225 1.7e-4,0.006 c 0.76143,-0.81077 0.7239,-2.08805 -0.0877,-2.85263 l -61.7771,-58.2469 c -0.40374,-0.37762 -0.92109,-0.5603 -1.43888,-0.54509 z m 67.37633,65.48037 0.0534,-0.002 z"
     style="stroke-width:0.80375487"
     inkscape:export-filename="G:\MAMP\htdocs\PhD-WS\MASTER\logo2.png"
     inkscape:export-xdpi="90"
     inkscape:export-ydpi="90" />
  <path
     inkscape:connector-curvature="0"
     id="path863"
     d="m 380.13657,432.17078 c -6.55275,0.19257 -13.185,-2.00294 -18.46775,-6.67545 -5.34361,-4.72726 -8.52523,-11.25218 -8.96111,-18.36934 -0.43547,-7.12361 1.92589,-13.98684 6.65029,-19.32419 9.75856,-11.02873 26.66731,-12.06593 37.69353,-2.31058 5.34361,4.72726 8.52523,11.25217 8.96111,18.36933 0.43547,7.12362 -1.9259,13.98686 -6.65342,19.32428 -5.07985,5.74341 -12.10195,8.77695 -19.22256,8.98619 z m -1.22665,-42.17286 c -4.13626,0.12148 -8.21492,1.88102 -11.16349,5.2217 l -0.004,1.1e-4 c -2.74524,3.09918 -4.11396,7.08136 -3.86354,11.21978 0.25334,4.13239 2.10169,7.92273 5.20391,10.66467 6.40789,5.6729 16.23091,5.06696 21.89079,-1.34367 2.74837,-3.09928 4.1171,-7.08144 3.86355,-11.21978 -0.25335,-4.13239 -2.10169,-7.92273 -5.20392,-10.66466 -3.06684,-2.71485 -6.92066,-3.98989 -10.72407,-3.87813 z m -15.3557,1.51286 0.0533,-0.002 z"
     style="stroke-width:0.80375487"
     inkscape:export-filename="G:\MAMP\htdocs\PhD-WS\MASTER\logo2.png"
     inkscape:export-xdpi="90"
     inkscape:export-ydpi="90" />
  <path
     inkscape:connector-curvature="0"
     id="path865"
     d="m 393.51034,395.27964 c -1.37456,0.0404 -2.76394,-0.42135 -3.87318,-1.40016 -2.31547,-2.04901 -2.53244,-5.58575 -0.48354,-7.90434 l 18.27643,-20.66129 c 2.04919,-2.3092 5.58611,-2.5199 7.89801,-0.48334 2.31546,2.04899 2.53245,5.58573 0.48353,7.90434 l -18.27643,20.66128 c -1.06412,1.19971 -2.53418,1.83971 -4.02482,1.88351 z"
     style="stroke-width:0.80375487"
     inkscape:export-filename="G:\MAMP\htdocs\PhD-WS\MASTER\logo2.png"
     inkscape:export-xdpi="90"
     inkscape:export-ydpi="90" />
  <path
     inkscape:connector-curvature="0"
     id="path867"
     d="m 346.63364,549.72771 c -16.03683,0.47121 -40.75551,-2.17592 -64.06391,-18.37371 -45.33588,-31.49131 -45.48259,-85.85232 -45.35038,-91.94325 0.0662,-3.09277 2.70565,-5.5166 5.71898,-5.47955 3.08954,0.0663 5.53944,2.6265 5.47328,5.71918 -0.1184,5.48455 0.008,54.34901 40.54384,82.51567 27.21287,18.89766 56.70171,17.09199 68.12765,15.46567 3.05865,-0.45109 5.89772,1.67364 6.33968,4.74198 0.43845,3.05589 -1.68001,5.89478 -4.74206,6.33656 -2.99334,0.43031 -7.11071,0.87482 -12.04765,1.01989 z"
     style="fill:#000080;stroke:#000080;stroke-width:0.80375487"
     inkscape:export-filename="G:\MAMP\htdocs\PhD-WS\MASTER\logo2.png"
     inkscape:export-xdpi="90"
     inkscape:export-ydpi="90" />
  <path
     inkscape:connector-curvature="0"
     id="path869"
     d="m 365.55564,506.99346 c -12.47452,0.36655 -31.70495,-1.69741 -49.85412,-14.30596 -35.29332,-24.50927 -35.40173,-66.78415 -35.29894,-71.52332 0.0662,-3.09276 2.67377,-5.53135 5.71897,-5.47954 3.09276,0.0662 5.53964,2.63276 5.47329,5.71917 -0.0365,1.64699 -0.52662,40.55024 30.49219,62.08772 20.47065,14.22451 42.65966,12.87778 51.2486,11.62993 3.03654,-0.45672 5.90087,1.67356 6.3395,4.73571 0.44177,3.06207 -1.67982,5.90105 -4.74198,6.33969 -2.32693,0.3385 -5.53318,0.684 -9.37734,0.79695 z"
     style="fill:#000080;stroke:#000080;stroke-width:0.80375487"
     inkscape:export-filename="G:\MAMP\htdocs\PhD-WS\MASTER\logo2.png"
     inkscape:export-xdpi="90"
     inkscape:export-ydpi="90" />
  <path
     inkscape:connector-curvature="0"
     id="path871"
     d="m 380.26346,467.52241 c -9.19178,0.27009 -23.39009,-1.2444 -36.77753,-10.54745 -26.04008,-18.09024 -26.09946,-49.20079 -26.02025,-52.68971 0.0662,-3.09276 2.59315,-5.6044 5.72231,-5.47336 3.08971,0.0725 5.53658,2.63599 5.46701,5.72249 -0.0259,1.15037 -0.38899,28.23701 21.2133,43.24766 14.22043,9.87546 29.68137,8.93388 35.67096,8.08003 3.05784,-0.47935 5.89792,1.6799 6.3397,4.74198 0.43861,3.06216 -1.68628,5.89496 -4.74521,6.33663 -1.71074,0.25131 -4.0561,0.49925 -6.87116,0.58196 z"
     style="fill:#000080;stroke:#000080;stroke-width:0.80375487"
     inkscape:export-filename="G:\MAMP\htdocs\PhD-WS\MASTER\logo2.png"
     inkscape:export-xdpi="90"
     inkscape:export-ydpi="90" />
  <path
     inkscape:connector-curvature="0"
     id="path873"
     d="m 529.27907,287.60134 c -0.11297,0.004 -0.22613,5.2e-4 -0.34235,3.6e-4 -1.60655,-0.0501 -3.11397,-0.78803 -4.13661,-2.02694 -0.4039,-0.49069 -0.80171,-0.98784 -1.31857,-1.47521 l -29.97267,-28.26141 c -0.46843,-0.44169 -0.73693,-0.60028 -0.76583,-0.62142 -0.12774,-0.0716 -0.25253,-0.14962 -0.3777,-0.24018 -1.39907,-0.79443 -2.40355,-2.15947 -2.72679,-3.75503 -0.36021,-1.78297 0.15701,-3.63563 1.40602,-4.95704 l 17.01194,-18.04858 c 5.62308,-5.96353 15.04713,-6.24044 21.00512,-0.61721 l 1.01884,0.8935 c 0.24181,0.21277 0.46214,0.44187 0.66418,0.69035 l 18.59801,17.53939 c 3.09467,2.91189 4.75843,6.61961 4.85656,10.6025 0.0932,3.91725 -1.35538,7.64109 -4.07961,10.49439 l -16.92502,18.02434 c -1.02046,1.08222 -2.43102,1.7142 -3.91548,1.75781 z m -26.02678,-37.97043 25.76988,24.30183 12.95622,-13.80198 c 0.0153,-0.0161 0.0306,-0.0293 0.0489,-0.0455 0.84107,-0.87908 0.99821,-1.83856 0.98521,-2.49464 -0.0245,-0.96671 -0.44153,-1.87796 -1.17505,-2.57567 l -0.83466,-0.71991 c -0.14843,-0.13385 -0.2938,-0.27092 -0.42679,-0.41463 l -1.0898,-1.17099 -16.84435,-15.79133 c -0.15518,-0.14936 -0.30415,-0.30204 -0.44094,-0.46763 l -0.66741,-0.58662 c -1.60843,-1.50441 -3.93711,-1.43598 -5.32314,0.0308 z"
     style="stroke-width:0.80375487"
     inkscape:export-filename="G:\MAMP\htdocs\PhD-WS\MASTER\logo2.png"
     inkscape:export-xdpi="90"
     inkscape:export-ydpi="90" />
  <path
     inkscape:connector-curvature="0"
     id="path875"
     d="m 544.84057,255.65548 -0.0942,0.002 c -1.51349,0.016 -2.97585,-0.57846 -4.04398,-1.65269 l -1.12324,-1.13231 -16.92466,-15.9522 c -2.24841,-2.1169 -2.35224,-5.65069 -0.24176,-7.90196 l 14.87181,-15.84679 c 3.32318,-3.52763 7.81558,-5.53487 12.66744,-5.67744 l 0.0753,-0.002 c 4.84285,-0.12664 9.41417,1.63312 12.87256,4.94265 7.26568,6.85698 7.63496,18.35766 0.79988,25.62011 l -0.004,1.1e-4 -14.94421,15.84571 c -1.02368,1.07919 -2.42797,1.71099 -3.91242,1.75461 z m -10.44311,-23.0499 10.08207,9.50414 11.06623,-11.73376 c 2.60741,-2.76851 2.44643,-7.17685 -0.36396,-9.82347 -1.31544,-1.26173 -3.0403,-1.91778 -4.87642,-1.8701 l -0.0283,8.3e-4 c -1.86415,0.0548 -3.58196,0.81512 -4.84297,2.1557 z m 25.22529,1.6083 0.0533,-0.002 z"
     style="stroke-width:0.80375487"
     inkscape:export-filename="G:\MAMP\htdocs\PhD-WS\MASTER\logo2.png"
     inkscape:export-xdpi="90"
     inkscape:export-ydpi="90" />
  <path
     style="opacity:1;fill:#ff6600;fill-opacity:1;stroke:#ff6600;stroke-width:2.71196938;stroke-miterlimit:4;stroke-dasharray:none;stroke-dashoffset:0;stroke-opacity:1"
     d="m 372.68408,244.94509 -31.91532,-30.11069 19.98269,-21.165 c 10.99048,-11.64077 20.54412,-21.18152 21.2303,-21.20168 0.68619,-0.0202 15.43983,13.38464 32.78586,29.78846 l 31.53824,29.82512 -20.21657,21.46852 c -11.11913,11.8077 -20.50308,21.47695 -20.85323,21.48724 -0.35017,0.01 -14.99855,-13.53111 -32.55197,-30.09197 z"
     id="path4641"
     inkscape:connector-curvature="0"
     inkscape:export-filename="G:\MAMP\htdocs\PhD-WS\MASTER\logo2.png"
     inkscape:export-xdpi="90"
     inkscape:export-ydpi="90" />
  <path
     style="opacity:1;fill:#ff6600;fill-opacity:1;stroke:#ff6600;stroke-width:2.71196938;stroke-miterlimit:4;stroke-dasharray:none;stroke-dashoffset:0;stroke-opacity:1"
     d="m 540.82596,403.48781 -31.91532,-30.11068 19.98269,-21.16501 c 10.99048,-11.64075 20.54411,-21.1815 21.2303,-21.20167 0.68618,-0.0202 15.43981,13.38464 32.78585,29.78846 l 31.53824,29.82512 -20.21658,21.46852 c -11.11911,11.80769 -20.50307,21.47695 -20.85323,21.48724 -0.35016,0.01 -14.99854,-13.5311 -32.55195,-30.09198 z"
     id="path4643"
     inkscape:connector-curvature="0"
     inkscape:export-filename="G:\MAMP\htdocs\PhD-WS\MASTER\logo2.png"
     inkscape:export-xdpi="90"
     inkscape:export-ydpi="90" />
  <path
     style="opacity:1;fill:#1a1a1a;fill-opacity:1;stroke:#1a1a1a;stroke-width:2.71196938;stroke-miterlimit:4;stroke-dasharray:none;stroke-dashoffset:0;stroke-opacity:1"
     d="m 539.5825,237.53532 c -2.2244,-2.16401 -4.06163,-4.52346 -4.08279,-5.24321 -0.0741,-2.52031 11.73685,-13.05384 14.73564,-13.14196 3.33873,-0.0981 7.09941,3.25481 7.19219,6.41233 0.0589,2.00358 -11.25219,15.83253 -12.99165,15.88364 -0.44498,0.0134 -2.62902,-1.74677 -4.85339,-3.9108 z"
     id="path4645"
     inkscape:connector-curvature="0"
     inkscape:export-filename="G:\MAMP\htdocs\PhD-WS\MASTER\logo2.png"
     inkscape:export-xdpi="90"
     inkscape:export-ydpi="90" />
  <path
     style="opacity:1;fill:#4d4d4d;fill-opacity:1;stroke:#4d4d4d;stroke-width:2.71196938;stroke-miterlimit:4;stroke-dasharray:none;stroke-dashoffset:0;stroke-opacity:1"
     d="m 516.33706,260.98674 -12.31231,-11.6532 6.89906,-7.2403 c 3.79448,-3.98218 7.44722,-7.25643 8.11719,-7.27612 1.97096,-0.0579 23.28711,20.6996 23.34692,22.73506 0.0483,1.64641 -11.61713,15.02542 -13.14007,15.07017 -0.32918,0.01 -6.13903,-5.22635 -12.91079,-11.63561 z"
     id="path4647"
     inkscape:connector-curvature="0"
     inkscape:export-filename="G:\MAMP\htdocs\PhD-WS\MASTER\logo2.png"
     inkscape:export-xdpi="90"
     inkscape:export-ydpi="90" />
  <path
     style="opacity:1;fill:#808080;fill-opacity:1;stroke:#808080;stroke-width:2.71196938;stroke-miterlimit:4;stroke-dasharray:none;stroke-dashoffset:0;stroke-opacity:1"
     d="m 472.4564,345.0876 c -7.7085,-14.85427 -19.61184,-26.28464 -35.43336,-34.02546 l -8.68738,-4.25038 25.37569,-26.80594 c 32.86812,-34.72068 28.82165,-33.969 54.3139,-10.08938 16.57793,15.52921 18.2581,17.49123 19.03583,22.22897 l 0.85304,5.19638 -25.81389,27.56304 -25.81389,27.56305 z"
     id="path4649"
     inkscape:connector-curvature="0"
     inkscape:export-filename="G:\MAMP\htdocs\PhD-WS\MASTER\logo2.png"
     inkscape:export-xdpi="90"
     inkscape:export-ydpi="90" />
  <path
     style="opacity:1;fill:#b3b3b3;fill-opacity:1;stroke:#b3b3b3;stroke-width:2.71196938;stroke-miterlimit:4;stroke-dasharray:none;stroke-dashoffset:0;stroke-opacity:1"
     d="m 452.79411,404.96937 c -15.45279,-20.51578 -53.42991,-56.28872 -75.63208,-71.24241 -4.16903,-2.80796 -5.60084,-4.43909 -4.79821,-5.46615 2.50148,-3.20093 14.7454,-8.68728 24.18395,-10.83656 9.22744,-2.10121 10.67972,-2.13809 19.4948,-0.49512 13.09993,2.44154 21.42957,6.52479 31.40213,15.39354 17.07514,15.18518 24.25147,36.22979 19.47488,57.1102 -1.69905,7.42724 -7.23467,19.40366 -9.29238,20.10424 -0.60961,0.20755 -2.7845,-1.84792 -4.83309,-4.56771 z"
     id="path4651"
     inkscape:connector-curvature="0"
     inkscape:export-filename="G:\MAMP\htdocs\PhD-WS\MASTER\logo2.png"
     inkscape:export-xdpi="90"
     inkscape:export-ydpi="90" />
  <path
     style="opacity:1;fill:#000000;fill-opacity:1;stroke:#000000;stroke-width:2.71196938;stroke-miterlimit:4;stroke-dasharray:none;stroke-dashoffset:0;stroke-opacity:1"
     d="m 372.99463,419.30044 c -5.36527,-2.23477 -8.38931,-6.95279 -8.57826,-13.38357 -0.4161,-14.16072 15.62816,-20.83248 25.60276,-10.64655 11.49624,11.73982 -1.72562,30.40251 -17.0245,24.03012 z"
     id="path4653"
     inkscape:connector-curvature="0"
     inkscape:export-filename="G:\MAMP\htdocs\PhD-WS\MASTER\logo2.png"
     inkscape:export-xdpi="90"
     inkscape:export-ydpi="90" />
  <text
     xml:space="preserve"
     style="font-style:normal;font-variant:normal;font-weight:normal;font-stretch:normal;font-size:180px;line-height:1.25;font-family:'MS Reference Sans Serif';-inkscape-font-specification:'MS Reference Sans Serif';letter-spacing:0px;word-spacing:0px;fill:#800080;fill-opacity:1;stroke:#ff6600;stroke-width:0.75"
     x="-735.73352"
     y="140.79874"
     id="text4657"
     transform="rotate(-90)"
     inkscape:export-filename="G:\MAMP\htdocs\PhD-WS\MASTER\logo2.png"
     inkscape:export-xdpi="90"
     inkscape:export-ydpi="90"><tspan
       sodipodi:role="line"
       id="tspan4655"
       x="-735.73352"
       y="140.79874"
       style="font-style:normal;font-variant:normal;font-weight:normal;font-stretch:normal;font-size:169.99999655px;font-family:'MS Reference Sans Serif';-inkscape-font-specification:'MS Reference Sans Serif';fill:#800080;stroke:#ff6600;stroke-width:0.75">Science</tspan></text>
  <text
     id="text4705"
     y="712.03442"
     x="287.36176"
     style="font-style:normal;font-variant:normal;font-weight:normal;font-stretch:normal;font-size:140px;line-height:1.25;font-family:'MS Reference Sans Serif';-inkscape-font-specification:'MS Reference Sans Serif';letter-spacing:0px;word-spacing:0px;fill:#800080;fill-opacity:1;stroke:#ff6600;stroke-width:0.75"
     xml:space="preserve"
     inkscape:export-filename="G:\MAMP\htdocs\PhD-WS\MASTER\logo2.png"
     inkscape:export-xdpi="90"
     inkscape:export-ydpi="90"><tspan
       style="font-style:normal;font-variant:normal;font-weight:normal;font-stretch:normal;font-size:140px;font-family:'MS Reference Sans Serif';-inkscape-font-specification:'MS Reference Sans Serif';fill:#800080;stroke:#ff6600;stroke-width:0.75"
       y="712.03442"
       x="287.36176"
       id="tspan4703"
       sodipodi:role="line">People</tspan></text>
  <text
     xml:space="preserve"
     style="font-style:normal;font-variant:normal;font-weight:normal;font-stretch:normal;font-size:64px;line-height:1.25;font-family:Montserrat;-inkscape-font-specification:Montserrat;letter-spacing:1.5px;word-spacing:0px;fill:#000000;fill-opacity:1;stroke:none;stroke-width:0.75"
     x="176.9687"
     y="651.53601"
     id="text4731"
     inkscape:export-filename="G:\MAMP\htdocs\PhD-WS\MASTER\logo2.png"
     inkscape:export-xdpi="90"
     inkscape:export-ydpi="90"><tspan
       sodipodi:role="line"
       id="tspan4729"
       x="176.9687"
       y="651.53601"
       style="font-style:normal;font-variant:normal;font-weight:bold;font-stretch:normal;font-size:60px;line-height:6.3212595px;font-family:'MS Reference Sans Serif';-inkscape-font-specification:'MS Reference Sans Serif Bold';letter-spacing:1.5px;word-spacing:1.3125px;fill:#ff6600;stroke-width:0.75">for</tspan><tspan
       sodipodi:role="line"
       x="176.9687"
       y="731.53601"
       style="font-style:normal;font-variant:normal;font-weight:bold;font-stretch:normal;font-size:48px;line-height:6.3212595px;font-family:'MS Reference Sans Serif';-inkscape-font-specification:'MS Reference Sans Serif Bold';letter-spacing:1.5px;word-spacing:1.3125px;fill:#ff6600;stroke-width:0.75"
       id="tspan4733" /></text>
  <flowRoot
     xml:space="preserve"
     id="flowRoot4739"
     style="font-style:normal;font-weight:normal;font-size:16px;line-height:1.25;font-family:sans-serif;letter-spacing:0px;word-spacing:0px;fill:#000000;fill-opacity:1;stroke:none"
     transform="matrix(0.77639497,0,0,0.77639497,-3.8684683,7.408086)"
     inkscape:export-filename="G:\MAMP\htdocs\PhD-WS\MASTER\logo2.png"
     inkscape:export-xdpi="90"
     inkscape:export-ydpi="90"><flowRegion
       id="flowRegion4741"><rect
         id="rect4743"
         width="118.93975"
         height="167.25902"
         x="191.41866"
         y="738.7691" /></flowRegion><flowPara
       id="flowPara4745">`</flowPara></flowRoot>  <text
     id="text4759"
     y="714.53601"
     x="176.9687"
     style="font-style:normal;font-variant:normal;font-weight:normal;font-stretch:normal;font-size:64px;line-height:1.25;font-family:Montserrat;-inkscape-font-specification:Montserrat;letter-spacing:0px;word-spacing:0px;fill:#000000;fill-opacity:1;stroke:none;stroke-width:0.75"
     xml:space="preserve"
     inkscape:export-filename="G:\MAMP\htdocs\PhD-WS\MASTER\logo2.png"
     inkscape:export-xdpi="90"
     inkscape:export-ydpi="90"><tspan
       style="font-style:normal;font-variant:normal;font-weight:bold;font-stretch:normal;font-size:60px;line-height:6.3212595px;font-family:'MS Reference Sans Serif';-inkscape-font-specification:'MS Reference Sans Serif Bold';letter-spacing:1.5px;word-spacing:1.3125px;fill:#ff6600;stroke-width:0.75"
       y="714.53601"
       x="176.9687"
       id="tspan4755"
       sodipodi:role="line">the</tspan><tspan
       id="tspan4757"
       style="font-style:normal;font-variant:normal;font-weight:bold;font-stretch:normal;font-size:48px;line-height:6.3212595px;font-family:'MS Reference Sans Serif';-inkscape-font-specification:'MS Reference Sans Serif Bold';letter-spacing:0.75px;word-spacing:1.3125px;fill:#ff6600;stroke-width:0.75"
       y="794.53601"
       x="176.9687"
       sodipodi:role="line" /></text>
  <flowRoot
     xml:space="preserve"
     id="flowRoot4761"
     style="fill:black;fill-opacity:1;stroke:none;font-family:sans-serif;font-style:normal;font-weight:normal;font-size:16px;line-height:1.25;letter-spacing:0px;word-spacing:0px"><flowRegion
       id="flowRegion4763"><rect
         id="rect4765"
         width="33.451805"
         height="65.045174"
         x="135.66565"
         y="303.89566" /></flowRegion><flowPara
       id="flowPara4767" /></flowRoot>  <circle
     inkscape:export-ydpi="90"
     inkscape:export-xdpi="90"
     inkscape:export-filename="G:\MAMP\htdocs\PhD-WS\MASTER\logo.png"
     r="373.42465"
     cy="373.50763"
     cx="1505.5297"
     id="circle915"
     style="opacity:1;fill:url(#linearGradient991);fill-opacity:1;stroke:none;stroke-width:2.15821385;stroke-miterlimit:4;stroke-dasharray:none;stroke-dashoffset:0;stroke-opacity:1" />
  <g
     inkscape:export-ydpi="90"
     inkscape:export-xdpi="90"
     inkscape:export-filename="G:\MAMP\htdocs\PhD-WS\MASTER\logo.png"
     transform="matrix(1.034831,0.02738659,-0.02738659,1.034831,1152.3056,-81.082685)"
     id="g959">
    <g
       transform="matrix(0.88688084,-0.0367958,0.0367958,0.88688084,1.1099364,106.03385)"
       id="g957">
      <path
         style="stroke-width:0.84029192"
         d="m 459.75866,355.38534 c -1.11587,0.016 -2.22326,-0.28976 -3.19047,-0.89303 -1.37806,-0.86655 -2.3403,-2.26429 -2.6423,-3.86516 -2.32556,-12.20419 -8.26157,-23.22786 -17.17083,-31.88767 l -3.51231,-3.41281 c -8.90206,-8.64985 -20.09514,-14.26997 -32.36441,-16.24084 -1.63538,-0.26866 -3.08338,-1.20642 -3.98323,-2.6018 -0.89974,-1.38883 -1.16709,-3.09195 -0.7404,-4.69355 0.25859,-0.96553 0.90852,-2.79681 2.37713,-4.30824 l 56.61353,-58.26767 c 8.57696,-8.94386 22.5955,-10.21847 32.65603,-3.00021 0.0762,0.0514 0.14582,0.0964 0.22202,0.14452 0.93069,0.57095 1.89027,1.32862 2.84566,2.2505 l 30.89856,30.02645 c 0.90555,0.87988 1.62383,1.75264 2.32925,2.6354 0.63214,0.81488 1.11543,1.54985 1.58887,2.28493 5.9746,10.05416 4.50678,22.58597 -3.40567,30.7362 l -56.61576,58.3467 c -1.52325,1.36457 -2.95663,2.13361 -4.47071,2.53942 -0.46744,0.13802 -0.95237,0.2008 -1.43483,0.20773 z m -47.18227,-65.56403 c 10.78866,3.32465 20.61894,9.14117 28.82553,17.11525 l 3.51233,3.41282 c 8.22317,7.99342 14.32691,17.67151 17.95754,28.38711 l 51.01321,-52.59701 0.004,-5e-5 c 4.23767,-4.36456 5.01751,-11.09199 1.89554,-16.35244 -0.2248,-0.33817 -0.52374,-0.80988 -0.88167,-1.27747 -0.35095,-0.43485 -0.75898,-0.96075 -1.29164,-1.47833 l -30.88859,-30.01316 c -0.48274,-0.46905 -0.76092,-0.63903 -0.7908,-0.66158 -0.12913,-0.0769 -0.25507,-0.16048 -0.38112,-0.25058 -0.1754,-0.0992 -0.34434,-0.20515 -0.50034,-0.32437 -5.3611,-3.91148 -12.88482,-3.22561 -17.48755,1.57093 z"
         id="path917"
         inkscape:connector-curvature="0" />
      <path
         style="stroke-width:0.84029192"
         d="m 442.23444,413.70731 c -0.16738,0.002 -0.34141,-0.001 -0.50904,-0.0156 -1.72522,-0.12294 -3.30712,-1.00951 -4.31867,-2.41311 -13.40777,-18.56459 -28.55895,-36.05113 -45.03383,-51.96478 -15.92862,-15.38704 -33.32322,-29.5126 -51.69575,-41.98202 -1.43541,-0.97404 -2.36373,-2.52658 -2.53625,-4.25083 -0.17578,-1.72419 0.42015,-3.4299 1.62673,-4.67168 4.26355,-4.38787 9.06061,-8.21229 14.26085,-11.37271 14.46875,-8.77557 31.87798,-12.17127 48.68112,-9.49745 14.68862,2.37243 28.05952,9.07376 38.67967,19.38638 l 3.479,3.38044 c 10.61342,10.31273 17.70303,23.48296 20.49956,38.08721 4.40741,22.98152 -2.70306,46.73531 -19.02329,63.5379 -1.08361,1.12184 -2.56485,1.75375 -4.11075,1.77596 z M 353.31255,311.84539 c 16.69455,11.78509 32.54183,24.90428 47.19203,39.0491 15.20678,14.68813 29.31197,30.67283 42.01703,47.59029 10.37597,-13.52289 14.5997,-30.95253 11.35274,-47.89413 -2.34234,-12.23082 -8.2751,-23.25706 -17.16078,-31.89116 l -3.47901,-3.38044 c -8.88576,-8.62738 -20.08116,-14.23403 -32.37425,-16.22388 -14.03967,-2.24393 -28.64317,0.60527 -40.756,7.94223 -2.36583,1.43903 -4.63733,3.05065 -6.79185,4.80835 z"
         id="path919"
         inkscape:connector-curvature="0" />
      <path
         style="stroke-width:0.84029192"
         d="m 514.24832,339.55958 c -1.49658,0.0215 -3.00145,-0.52807 -4.16332,-1.65379 l -19.74208,-19.17613 c -2.31716,-2.25153 -2.37041,-5.95692 -0.11889,-8.27409 2.25153,-2.31718 5.95692,-2.37042 8.2741,-0.11889 l 19.74208,19.17613 c 2.31716,2.25151 2.37041,5.95691 0.11889,8.27408 -1.12254,1.15526 -2.61413,1.75118 -4.11078,1.77269 z"
         id="path921"
         inkscape:connector-curvature="0" />
      <path
         style="stroke-width:0.84029192"
         d="m 435.80509,263.37193 c -1.49658,0.0215 -3.00144,-0.52807 -4.1633,-1.6538 L 411.89971,242.542 c -2.31717,-2.25153 -2.37042,-5.9569 -0.1189,-8.27408 2.25153,-2.31717 5.95692,-2.37042 8.27409,-0.1189 l 19.74208,19.17613 c 2.31718,2.25152 2.37042,5.95691 0.11889,8.27409 -1.12576,1.15859 -2.61413,1.75119 -4.11078,1.77269 z"
         id="path923"
         inkscape:connector-curvature="0" />
      <path
         style="stroke-width:0.84029192"
         d="m 563.30102,436.04451 c -3.5118,0.0505 -7.03948,-1.2316 -9.75262,-3.86149 l -0.004,-0.006 -63.83358,-61.99937 c -5.42662,-5.27288 -5.55493,-13.97383 -0.28487,-19.40698 l 41.08264,-42.29076 c 2.55232,-2.62672 5.97461,-4.1105 9.64068,-4.16318 l 0.01,-1.5e-4 c 3.66278,-0.0526 7.12612,1.32558 9.7562,3.87783 l 63.83359,61.99938 c 2.63,2.55224 4.10727,5.97791 4.15995,9.64406 0.0526,3.6628 -1.32225,7.12937 -3.88118,9.75628 l -41.07331,42.29734 c -2.63967,2.71664 -6.13557,4.10291 -9.65425,4.15347 z m -1.60093,-12.26418 c 0.80558,0.77628 2.08563,0.75789 2.85865,-0.0411 l 41.07666,-42.29739 c 0.50788,-0.5227 0.57483,-1.11781 0.5703,-1.4329 -0.005,-0.31507 -0.0919,-0.91452 -0.61128,-1.41918 L 541.76085,316.5904 c -0.51941,-0.50792 -1.12104,-0.57149 -1.43285,-0.56701 -0.31508,0.005 -0.91452,0.0918 -1.41914,0.61456 l -41.08264,42.29076 c -0.7731,0.79897 -0.7547,2.07894 0.0451,2.85858 z"
         id="path925"
         inkscape:connector-curvature="0" />
      <path
         style="stroke-width:0.84029192"
         d="m 390.01614,267.69393 c -3.68901,0.053 -7.17547,-1.33141 -9.81872,-3.89996 l -63.72738,-61.91938 c -2.65008,-2.57499 -4.13416,-6.0235 -4.18389,-9.71263 -0.0491,-3.69235 1.34123,-7.18217 3.91296,-9.82564 l 40.97681,-42.11192 c 5.30532,-5.45004 14.06173,-5.57914 19.51805,-0.27446 l 63.66771,61.86058 c 5.45331,5.30527 5.58237,14.05831 0.28651,19.52125 l 8e-5,0.006 -40.91664,42.17413 c -2.5718,2.64348 -6.01695,4.13406 -9.70587,4.18706 -8e-5,-0.006 -0.006,-0.006 -0.0101,-0.006 z M 367.04697,147.74899 c -0.54153,0.008 -1.07685,0.2223 -1.48115,0.63845 l -40.9768,42.11193 c -0.53062,0.53942 -0.60038,1.16741 -0.59567,1.4956 0.005,0.32493 0.0924,0.95393 0.63516,1.48121 l 63.72741,61.9219 c 0.54263,0.52399 1.16734,0.59381 1.49553,0.58909 l 0.004,-6e-5 c 0.32493,-0.005 0.95394,-0.0924 1.48116,-0.63844 l 40.9171,-42.17324 9e-5,0.006 c 0.80867,-0.83559 0.78948,-2.17137 -0.0469,-2.98335 l -63.6643,-61.85699 c -0.41612,-0.40108 -0.95406,-0.60016 -1.49557,-0.59238 z m 69.40392,69.50627 0.0558,-8e-4 z"
         id="path927"
         inkscape:connector-curvature="0" />
      <path
         style="stroke-width:0.84029192"
         d="m 361.44059,419.56599 c -6.85288,0.0985 -13.75139,-2.3006 -19.20036,-7.26784 -5.51173,-5.02543 -8.73524,-11.8961 -9.07923,-19.34279 -0.34345,-7.45343 2.23264,-14.5908 7.25498,-20.09602 10.37404,-11.37569 28.0657,-12.19464 39.43881,-1.824 5.51173,5.02542 8.73524,11.89609 9.07923,19.34278 0.34346,7.45344 -2.23265,14.59081 -7.25825,20.09607 -5.40028,5.92412 -12.78835,8.98504 -20.23509,9.09205 z m -0.62065,-44.10423 c -4.32571,0.0621 -8.6169,1.83743 -11.75157,5.28332 l -0.004,5e-5 c -2.91833,3.19663 -4.41159,7.33789 -4.21474,11.66788 0.2,4.32373 2.07269,8.31492 5.27255,11.22985 6.60943,6.03064 16.88733,5.55133 22.9044,-1.06117 2.92161,-3.19668 4.41487,-7.33792 4.21475,-11.66787 -0.20001,-4.32373 -2.07269,-8.31492 -5.27256,-11.22984 -3.1633,-2.88605 -7.17185,-4.27936 -11.14946,-4.22221 z m -16.07567,1.34055 0.0557,-8e-4 z"
         id="path929"
         inkscape:connector-curvature="0" />
      <path
         style="stroke-width:0.84029192"
         d="m 375.99948,381.21201 c -1.43752,0.0207 -2.88265,-0.48382 -4.02682,-1.52441 -2.38831,-2.17823 -2.55964,-5.87873 -0.38146,-8.27031 l 19.42922,-21.31135 c 2.17833,-2.38175 5.87892,-2.54652 8.26369,-0.38135 2.3883,2.17822 2.55964,5.87872 0.38145,8.27031 l -19.42922,21.31134 c -1.13119,1.23741 -2.67795,1.88337 -4.23686,1.90577 z"
         id="path931"
         inkscape:connector-curvature="0" />
      <path
         style="fill:#000080;stroke:#000080;stroke-width:0.84029192"
         d="m 356.20976,507.62041 c -16.77134,0.24099 -42.56924,-2.91396 -66.68034,-20.21183 -46.89737,-33.63037 -46.19791,-90.45842 -45.96415,-96.82344 0.11769,-3.23195 2.91487,-5.72427 6.06425,-5.63827 3.22858,0.11775 5.74939,2.83249 5.63171,6.06435 -0.20981,5.73137 -0.84472,56.81333 41.08759,86.89301 28.15023,20.18141 59.00443,18.75649 70.97394,17.23569 3.20441,-0.42356 6.13887,1.84205 6.55273,5.05644 0.41039,3.20132 -1.84866,6.13569 -5.05648,6.54946 -3.13581,0.40287 -7.44683,0.80294 -12.60989,0.87713 z"
         id="path933"
         inkscape:connector-curvature="0" />
      <path
         style="fill:#000080;stroke:#000080;stroke-width:0.84029192"
         d="m 358.08337,481.27282 c -13.04587,0.18746 -33.11583,-2.27177 -51.89009,-15.73672 -36.50902,-26.17421 -35.95913,-70.36755 -35.77733,-75.31998 0.11769,-3.23195 2.88178,-5.74019 6.06424,-5.63826 3.23195,0.11768 5.7495,2.83904 5.63172,6.06434 -0.064,1.72109 -1.18665,42.38054 30.90067,65.38116 21.17564,15.1906 44.39183,14.13091 53.38977,12.96123 3.18138,-0.42979 6.14216,1.84201 6.55264,5.04988 0.41376,3.20784 -1.84856,6.14226 -5.05644,6.55274 -2.43774,0.31735 -5.79479,0.62821 -9.81501,0.68597 z"
         id="path935"
         inkscape:connector-curvature="0" />
      <path
         style="fill:#000080;stroke:#000080;stroke-width:0.84029192"
         d="m 363.81888,452.90325 c -9.61278,0.13813 -24.43108,-1.66777 -38.27957,-11.60265 -26.93694,-19.31897 -26.51094,-51.84102 -26.3734,-55.48688 0.1177,-3.23195 2.79864,-5.81782 6.06762,-5.63175 3.22867,0.12429 5.74626,2.84236 5.62512,6.06771 -0.0451,1.20213 -0.84962,29.51118 21.49663,45.54132 14.71026,10.54631 30.88698,9.80459 37.16153,9.00599 3.204,-0.45311 6.13898,1.8486 6.55275,5.05644 0.41046,3.20788 -1.85522,6.13579 -5.05977,6.5495 -1.79225,0.23586 -4.24784,0.45825 -7.19183,0.50055 z"
         id="path937"
         inkscape:connector-curvature="0" />
      <path
         style="stroke-width:0.84029192"
         d="m 519.61327,270.78152 c -0.11815,0.002 -0.23639,-0.003 -0.35788,-0.005 -1.6786,-0.0776 -3.24279,-0.87261 -4.29236,-2.18373 -0.41452,-0.51928 -0.82257,-1.04521 -1.35521,-1.56279 l -30.88827,-30.013 c -0.48274,-0.46907 -0.76093,-0.63906 -0.7908,-0.66161 -0.13241,-0.0768 -0.26164,-0.16037 -0.39106,-0.25699 -1.45004,-0.8524 -2.47865,-2.29509 -2.79152,-3.96807 -0.34857,-1.86946 0.22117,-3.798 1.54754,-5.15973 l 18.06642,-18.60002 c 5.97158,-6.1457 15.82727,-6.28732 21.96717,-0.31566 l 1.05102,0.94999 c 0.24944,0.22621 0.47616,0.46915 0.68347,0.73207 l 19.16608,18.6264 c 3.1893,3.09247 4.87033,6.99439 4.91042,11.15941 0.036,4.09632 -1.5367,7.96627 -4.42921,10.90621 l -17.97518,18.57604 c -1.0837,1.11528 -2.56813,1.75378 -4.12058,1.77608 z m -26.61115,-40.10033 26.55704,25.80796 13.76018,-14.2245 c 0.0162,-0.0166 0.0324,-0.0301 0.0518,-0.0468 0.893,-0.90574 1.07232,-1.90626 1.06902,-2.59229 -0.0105,-1.01093 -0.43209,-1.97003 -1.18792,-2.71089 l -0.86121,-0.76564 c -0.15306,-0.14225 -0.30287,-0.28781 -0.43964,-0.44013 l -1.12084,-1.24118 -17.36034,-16.77157 c -0.15987,-0.15856 -0.3132,-0.3205 -0.45359,-0.49575 l -0.68847,-0.62368 c -1.65775,-1.59786 -4.09309,-1.56286 -5.56498,-0.0513 z"
         id="path939"
         inkscape:connector-curvature="0" />
      <path
         style="stroke-width:0.84029192"
         d="m 536.3815,237.63136 -0.0985,0.001 c -1.58237,-0.007 -3.1017,-0.65137 -4.20141,-1.79107 l -1.1564,-1.20127 -17.44177,-16.94099 c -2.31714,-2.24816 -2.37024,-5.9438 -0.12876,-8.26403 l 15.79471,-16.33198 c 3.5292,-3.63543 8.25677,-5.66321 13.33086,-5.73612 l 0.0787,-10e-4 c 5.06441,-0.0564 9.81539,1.85486 13.37866,5.3687 7.48754,7.28186 7.69314,19.30978 0.43422,26.79428 l -0.004,6e-5 -15.87037,16.32971 c -1.08703,1.11206 -2.5649,1.75047 -4.11734,1.77278 z m -10.55499,-24.25882 10.39009,10.09323 11.75206,-12.09216 c 2.76906,-2.85313 2.66994,-7.46387 -0.22635,-10.27458 -1.35529,-1.33958 -3.14806,-2.05243 -5.06818,-2.0314 l -0.0296,4.3e-4 c -1.94953,0.028 -3.75715,0.79588 -5.09637,2.17746 z m 26.34378,2.07696 0.0557,-8.1e-4 z"
         id="path941"
         inkscape:connector-curvature="0" />
      <path
         inkscape:connector-curvature="0"
         id="path943"
         d="m 356.58743,223.73453 -32.88998,-31.9766 21.22075,-21.81114 c 11.67141,-11.99614 21.80789,-21.81959 22.5255,-21.8299 0.71762,-0.0103 15.92989,14.23373 33.80505,31.65343 l 32.50029,31.67217 -21.47,22.12475 c -11.80851,12.16862 -21.76963,22.12906 -22.13582,22.13432 -0.3662,0.005 -15.4663,-14.37991 -33.55579,-31.96703 z"
         style="opacity:1;fill:#ff6600;fill-opacity:1;stroke:#ff6600;stroke-width:2.8352499;stroke-miterlimit:4;stroke-dasharray:none;stroke-dashoffset:0;stroke-opacity:1" />
      <path
         inkscape:connector-curvature="0"
         id="path945"
         d="m 529.86565,392.10346 -32.88999,-31.9766 21.22075,-21.81115 c 11.67142,-11.99612 21.80789,-21.81957 22.52551,-21.82989 0.7176,-0.0103 15.92987,14.23373 33.80504,31.65343 l 32.50029,31.67217 -21.47001,22.12475 c -11.8085,12.16861 -21.76962,22.12906 -22.13582,22.13432 -0.36619,0.005 -15.4663,-14.3799 -33.55577,-31.96703 z"
         style="opacity:1;fill:#ff6600;fill-opacity:1;stroke:#ff6600;stroke-width:2.8352499;stroke-miterlimit:4;stroke-dasharray:none;stroke-dashoffset:0;stroke-opacity:1" />
      <path
         inkscape:connector-curvature="0"
         id="path947"
         d="m 531.1693,218.60714 c -2.2913,-2.29703 -4.17482,-4.79228 -4.18564,-5.54499 -0.0379,-2.63575 12.47379,-13.46158 15.60993,-13.50665 3.49165,-0.0502 7.37023,3.51376 7.41768,6.8159 0.0301,2.09535 -12.01075,16.37386 -13.82988,16.4 -0.46536,0.007 -2.72081,-1.86722 -5.01209,-4.16426 z"
         style="opacity:1;fill:#1a1a1a;fill-opacity:1;stroke:#1a1a1a;stroke-width:2.8352499;stroke-miterlimit:4;stroke-dasharray:none;stroke-dashoffset:0;stroke-opacity:1" />
      <path
         inkscape:connector-curvature="0"
         id="path949"
         d="m 506.502,242.75717 -12.68773,-12.37471 7.32545,-7.46035 c 4.02899,-4.1032 7.89872,-7.4686 8.59937,-7.47867 2.06123,-0.0296 24.01822,22.00345 24.04881,24.13214 0.0247,1.72182 -12.37958,15.52442 -13.97227,15.54731 -0.34426,0.005 -6.33539,-5.55963 -13.31363,-12.36572 z"
         style="opacity:1;fill:#4d4d4d;fill-opacity:1;stroke:#4d4d4d;stroke-width:2.8352499;stroke-miterlimit:4;stroke-dasharray:none;stroke-dashoffset:0;stroke-opacity:1" />
      <path
         inkscape:connector-curvature="0"
         id="path951"
         d="m 459.31239,329.98277 c -7.82496,-15.64869 -20.08868,-27.78406 -36.50611,-36.12406 l -9.01459,-4.57938 26.94676,-27.62323 c 34.90308,-35.77929 30.66135,-35.05701 56.93479,-9.69475 17.08595,16.49338 18.81152,18.57072 19.55019,23.53547 l 0.81019,5.44537 -27.41671,28.40778 -27.41671,28.40779 z"
         style="opacity:1;fill:#808080;fill-opacity:1;stroke:#808080;stroke-width:2.8352499;stroke-miterlimit:4;stroke-dasharray:none;stroke-dashoffset:0;stroke-opacity:1" />
      <path
         inkscape:connector-curvature="0"
         id="path953"
         d="m 437.81917,392.27113 c -15.83156,-21.6884 -54.96936,-59.67908 -77.94358,-75.65909 -4.31401,-3.00067 -5.78515,-4.72822 -4.93001,-5.78926 2.66511,-3.30681 15.55024,-8.84983 25.45046,-10.94849 9.67878,-2.05171 11.19748,-2.06748 20.38646,-0.21173 13.65558,2.75776 22.29883,7.15682 32.58442,16.58413 17.6111,16.14156 24.78265,38.25292 19.46192,60.00511 -1.89261,7.73734 -7.8671,20.16993 -10.0291,20.86999 -0.64051,0.2074 -2.88176,-1.97538 -4.98057,-4.85063 z"
         style="opacity:1;fill:#b3b3b3;fill-opacity:1;stroke:#b3b3b3;stroke-width:2.8352499;stroke-miterlimit:4;stroke-dasharray:none;stroke-dashoffset:0;stroke-opacity:1" />
      <path
         inkscape:connector-curvature="0"
         id="path955"
         d="m 354.17674,406.00006 c -5.57347,-2.42026 -8.6606,-7.39964 -8.75723,-14.12496 -0.21281,-14.80929 16.66356,-21.53185 26.93061,-10.7276 11.83331,12.45246 -2.28082,31.75389 -18.17338,24.85256 z"
         style="opacity:1;fill:#000000;fill-opacity:1;stroke:#000000;stroke-width:2.8352499;stroke-miterlimit:4;stroke-dasharray:none;stroke-dashoffset:0;stroke-opacity:1" />
    </g>
  </g>
  <text
     inkscape:export-ydpi="90"
     inkscape:export-xdpi="90"
     inkscape:export-filename="G:\MAMP\htdocs\PhD-WS\MASTER\logo.png"
     transform="rotate(-90)"
     id="text963"
     y="1265.9539"
     x="-660.47333"
     style="font-style:normal;font-variant:normal;font-weight:normal;font-stretch:normal;font-size:120px;line-height:1.25;font-family:'MS Reference Sans Serif';-inkscape-font-specification:'MS Reference Sans Serif';letter-spacing:0px;word-spacing:0px;fill:#800080;fill-opacity:1;stroke:#ff6600;stroke-width:0.75"
     xml:space="preserve"><tspan
       style="font-style:normal;font-variant:normal;font-weight:normal;font-stretch:normal;font-size:125px;font-family:'MS Reference Sans Serif';-inkscape-font-specification:'MS Reference Sans Serif';fill:#800080;stroke:#ff6600;stroke-width:0.75"
       y="1265.9539"
       x="-660.47333"
       id="tspan961"
       sodipodi:role="line">Science</tspan></text>
  <text
     inkscape:export-ydpi="90"
     inkscape:export-xdpi="90"
     inkscape:export-filename="G:\MAMP\htdocs\PhD-WS\MASTER\logo.png"
     xml:space="preserve"
     style="font-style:normal;font-variant:normal;font-weight:normal;font-stretch:normal;font-size:120px;line-height:1.25;font-family:'MS Reference Sans Serif';-inkscape-font-specification:'MS Reference Sans Serif';letter-spacing:0px;word-spacing:0px;fill:#800080;fill-opacity:1;stroke:#ff6600;stroke-width:0.75"
     x="1407.2644"
     y="647.52997"
     id="text967"><tspan
       sodipodi:role="line"
       id="tspan965"
       x="1407.2644"
       y="647.52997"
       style="font-style:normal;font-variant:normal;font-weight:normal;font-stretch:normal;font-size:100px;font-family:'MS Reference Sans Serif';-inkscape-font-specification:'MS Reference Sans Serif';fill:#800080;stroke:#ff6600;stroke-width:0.75">People</tspan></text>
  <text
     inkscape:export-ydpi="90"
     inkscape:export-xdpi="90"
     inkscape:export-filename="G:\MAMP\htdocs\PhD-WS\MASTER\logo.png"
     id="text973"
     y="593.5332"
     x="1305.1238"
     style="font-style:normal;font-variant:normal;font-weight:normal;font-stretch:normal;font-size:64px;line-height:1.25;font-family:Montserrat;-inkscape-font-specification:Montserrat;letter-spacing:1.5px;word-spacing:0px;fill:#000000;fill-opacity:1;stroke:none;stroke-width:0.75"
     xml:space="preserve"><tspan
       style="font-style:normal;font-variant:normal;font-weight:bold;font-stretch:normal;font-size:48px;line-height:6.3212595px;font-family:'MS Reference Sans Serif';-inkscape-font-specification:'MS Reference Sans Serif Bold';letter-spacing:1.5px;word-spacing:1.3125px;fill:#ff6600;stroke-width:0.75"
       y="593.5332"
       x="1305.1238"
       id="tspan969"
       sodipodi:role="line">for</tspan><tspan
       id="tspan971"
       style="font-style:normal;font-variant:normal;font-weight:bold;font-stretch:normal;font-size:48px;line-height:6.3212595px;font-family:'MS Reference Sans Serif';-inkscape-font-specification:'MS Reference Sans Serif Bold';letter-spacing:1.5px;word-spacing:1.3125px;fill:#ff6600;stroke-width:0.75"
       y="673.5332"
       x="1305.1238"
       sodipodi:role="line" /></text>
  <flowRoot
     inkscape:export-ydpi="90"
     inkscape:export-xdpi="90"
     inkscape:export-filename="G:\MAMP\htdocs\PhD-WS\MASTER\logo.png"
     transform="matrix(0.77639497,0,0,0.77639497,1121.2866,-52.0947)"
     style="font-style:normal;font-weight:normal;font-size:16px;line-height:1.25;font-family:sans-serif;letter-spacing:0px;word-spacing:0px;fill:#000000;fill-opacity:1;stroke:none"
     id="flowRoot981"
     xml:space="preserve"><flowRegion
       id="flowRegion977"><rect
         y="738.7691"
         x="191.41866"
         height="167.25902"
         width="118.93975"
         id="rect975" /></flowRegion><flowPara
       id="flowPara979">`</flowPara></flowRoot>  <text
     inkscape:export-ydpi="90"
     inkscape:export-xdpi="90"
     inkscape:export-filename="G:\MAMP\htdocs\PhD-WS\MASTER\logo.png"
     xml:space="preserve"
     style="font-style:normal;font-variant:normal;font-weight:normal;font-stretch:normal;font-size:64px;line-height:1.25;font-family:Montserrat;-inkscape-font-specification:Montserrat;letter-spacing:0px;word-spacing:0px;fill:#000000;fill-opacity:1;stroke:none;stroke-width:0.75"
     x="1305.1238"
     y="649.0332"
     id="text987"><tspan
       sodipodi:role="line"
       id="tspan983"
       x="1305.1238"
       y="649.0332"
       style="font-style:normal;font-variant:normal;font-weight:bold;font-stretch:normal;font-size:48px;line-height:6.3212595px;font-family:'MS Reference Sans Serif';-inkscape-font-specification:'MS Reference Sans Serif Bold';letter-spacing:1.5px;word-spacing:1.3125px;fill:#ff6600;stroke-width:0.75">the</tspan><tspan
       sodipodi:role="line"
       x="1305.1238"
       y="729.0332"
       style="font-style:normal;font-variant:normal;font-weight:bold;font-stretch:normal;font-size:48px;line-height:6.3212595px;font-family:'MS Reference Sans Serif';-inkscape-font-specification:'MS Reference Sans Serif Bold';letter-spacing:0.75px;word-spacing:1.3125px;fill:#ff6600;stroke-width:0.75"
       id="tspan985" /></text>
  <path
     inkscape:export-ydpi="90"
     inkscape:export-xdpi="90"
     inkscape:export-filename="G:\MAMP\htdocs\PhD-WS\MASTER\logo.png"
     inkscape:connector-curvature="0"
     id="path989"
     d="m 1794.4843,138.58507 a 373.42465,373.42465 0 0 0 -525.3399,-53.94245 373.42465,373.42465 0 0 0 -20.7963,18.32824 373.42465,373.42465 0 0 1 507.7422,66.85762 373.42465,373.42465 0 0 1 -33.1506,507.01334 373.42465,373.42465 0 0 0 17.601,-12.91593 373.42465,373.42465 0 0 0 53.9436,-525.34082 z"
     style="opacity:1;fill:#000080;fill-opacity:1;stroke:none;stroke-width:2.15821385;stroke-miterlimit:4;stroke-dasharray:none;stroke-dashoffset:0;stroke-opacity:1" />
  <text
     inkscape:export-ydpi="90"
     inkscape:export-xdpi="90"
     inkscape:export-filename="G:\MAMP\htdocs\PhD-WS\MASTER\logo.png"
     xml:space="preserve"
     style="font-style:normal;font-variant:normal;font-weight:normal;font-stretch:normal;font-size:120px;line-height:1.25;font-family:'MS Reference Sans Serif';-inkscape-font-specification:'MS Reference Sans Serif';letter-spacing:0px;word-spacing:0px;fill:#800080;fill-opacity:1;stroke:#ff6600;stroke-width:0.75"
     x="1468.9329"
     y="-122.38479"
     id="text995"><tspan
       sodipodi:role="line"
       id="tspan993"
       x="1468.9329"
       y="-122.38479"
       style="font-style:normal;font-variant:normal;font-weight:normal;font-stretch:normal;font-size:100px;font-family:'MS Reference Sans Serif';-inkscape-font-specification:'MS Reference Sans Serif';fill:#800080;stroke:#ff6600;stroke-width:0.75">I</tspan></text>
  <text
     id="text1044"
     y="-122.38479"
     x="373.98077"
     style="font-style:normal;font-variant:normal;font-weight:normal;font-stretch:normal;font-size:120px;line-height:1.25;font-family:'MS Reference Sans Serif';-inkscape-font-specification:'MS Reference Sans Serif';letter-spacing:0px;word-spacing:0px;fill:#800080;fill-opacity:1;stroke:#ff6600;stroke-width:0.75"
     xml:space="preserve"
     inkscape:export-filename="G:\MAMP\htdocs\PhD-WS\MASTER\logo.png"
     inkscape:export-xdpi="90"
     inkscape:export-ydpi="90"><tspan
       style="font-style:normal;font-variant:normal;font-weight:normal;font-stretch:normal;font-size:100px;font-family:'MS Reference Sans Serif';-inkscape-font-specification:'MS Reference Sans Serif';fill:#800080;stroke:#ff6600;stroke-width:0.75"
       y="-122.38479"
       x="373.98077"
       id="tspan1042"
       sodipodi:role="line">II</tspan></text>
</svg>
