<?xml version="1.0" encoding="UTF-8" standalone="no"?>
<!-- Generator: Adobe Illustrator 16.0.0, SVG Export Plug-In . SVG Version: 6.00 Build 0)  -->

<svg
   xmlns:dc="http://purl.org/dc/elements/1.1/"
   xmlns:cc="http://creativecommons.org/ns#"
   xmlns:rdf="http://www.w3.org/1999/02/22-rdf-syntax-ns#"
   xmlns:svg="http://www.w3.org/2000/svg"
   xmlns="http://www.w3.org/2000/svg"
   xmlns:sodipodi="http://sodipodi.sourceforge.net/DTD/sodipodi-0.dtd"
   xmlns:inkscape="http://www.inkscape.org/namespaces/inkscape"
   version="1.1"
   id="Capa_1"
   x="0px"
   y="0px"
   width="31.166px"
   height="31.166px"
   viewBox="0 0 31.166 31.166"
   style="enable-background:new 0 0 31.166 31.166;"
   xml:space="preserve"
   sodipodi:docname="chemistry-flask-with-liquid-inside-svgrepo-com.svg"
   inkscape:version="0.92.3 (2405546, 2018-03-11)"
   inkscape:export-filename="D:\Accademia\PhD\Docs\Svg_icons\Chemistry\Chem_mix.png"
   inkscape:export-xdpi="500"
   inkscape:export-ydpi="500"><metadata
   id="metadata53"><rdf:RDF><cc:Work
       rdf:about=""><dc:format>image/svg+xml</dc:format><dc:type
         rdf:resource="http://purl.org/dc/dcmitype/StillImage" /></cc:Work></rdf:RDF></metadata><defs
   id="defs51">
	

		
		
		
		
		
		
	</defs><sodipodi:namedview
   pagecolor="#ffffff"
   bordercolor="#666666"
   borderopacity="1"
   objecttolerance="10"
   gridtolerance="10"
   guidetolerance="10"
   inkscape:pageopacity="0"
   inkscape:pageshadow="2"
   inkscape:window-width="1080"
   inkscape:window-height="1857"
   id="namedview49"
   showgrid="false"
   inkscape:zoom="2.6772316"
   inkscape:cx="-3.2766444"
   inkscape:cy="10.300627"
   inkscape:window-x="3832"
   inkscape:window-y="-1"
   inkscape:window-maximized="1"
   inkscape:current-layer="Capa_1" />
<path
   d="M 28.055,24.561 20.338,13.517 V 3.442 c 0.575,-0.197 0.99,-0.744 0.99,-1.386 V 1.464 C 21.329,0.657 20.673,0 19.866,0 H 11.343 C 10.536,0 9.879,0.657 9.879,1.464 v 0.593 c 0,0.642 0.416,1.189 0.992,1.386 v 10 l -7.76,11.118 c -0.898,1.289 -1.006,2.955 -0.28,4.348 0.727,1.393 2.154,2.258 3.725,2.258 h 18.056 c 1.571,0 2.999,-0.866 3.725,-2.259 0.725,-1.394 0.617,-3.06 -0.282,-4.347 z M 17.505,3.048 v 11.21 c 0,0.097 0.029,0.191 0.085,0.27 l 2.028,2.904 h -8.077 l 0.906,-1.298 h 3.135 c 0.261,0 0.472,-0.211 0.472,-0.473 0,-0.261 -0.211,-0.472 -0.472,-0.472 h -2.476 l 0.512,-0.733 c 0.055,-0.08 0.084,-0.173 0.084,-0.271 v -0.294 h 1.879 c 0.261,0 0.472,-0.211 0.472,-0.472 0,-0.261 -0.211,-0.472 -0.472,-0.472 h -1.879 v -1.299 h 1.879 c 0.261,0 0.472,-0.211 0.472,-0.472 0,-0.261 -0.211,-0.472 -0.472,-0.472 H 13.702 V 9.405 h 1.879 c 0.261,0 0.472,-0.211 0.472,-0.472 0,-0.261 -0.211,-0.473 -0.472,-0.473 H 13.702 V 7.162 h 1.879 c 0.261,0 0.472,-0.211 0.472,-0.472 0,-0.261 -0.211,-0.472 -0.472,-0.472 h -1.879 v -3.17 z m 8.32,24.55 c -0.236,0.453 -0.702,0.734 -1.213,0.734 H 6.556 C 6.045,28.332 5.58,28.05 5.344,27.598 5.107,27.145 5.142,26.604 5.434,26.184 l 5.448,-7.807 h 9.396 l 5.454,7.805 c 0.293,0.42 0.328,0.963 0.093,1.416 z"
   id="path2"
   inkscape:connector-curvature="0"
   style="stroke-width:0.1;stroke-miterlimit:4;stroke-dasharray:none;fill:#000000;fill-opacity:1"
   inkscape:export-xdpi="500"
   inkscape:export-ydpi="500" /><path
   d="m 15.583,19.676 h -3.272 c -0.261,0 -0.472,0.211 -0.472,0.473 0,0.261 0.211,0.472 0.472,0.472 h 3.272 c 0.261,0 0.472,-0.211 0.472,-0.472 0.001,-0.262 -0.21,-0.473 -0.472,-0.473 z"
   id="path4"
   inkscape:connector-curvature="0"
   inkscape:export-xdpi="500"
   inkscape:export-ydpi="500" /><circle
   cx="10.113"
   cy="25.402"
   r="1.726"
   id="circle6"
   inkscape:export-xdpi="500"
   inkscape:export-ydpi="500" /><circle
   cx="17.573999"
   cy="22.320999"
   r="0.51200002"
   id="circle8"
   inkscape:export-xdpi="500"
   inkscape:export-ydpi="500" /><circle
   cx="20.976999"
   cy="25.302"
   r="0.90399998"
   id="circle10"
   inkscape:export-xdpi="500"
   inkscape:export-ydpi="500" /><circle
   cx="14.723"
   cy="25.174"
   r="0.77600002"
   id="circle12"
   inkscape:export-xdpi="500"
   inkscape:export-ydpi="500" />
<g
   id="g18">
</g>
<g
   id="g20">
</g>
<g
   id="g22">
</g>
<g
   id="g24">
</g>
<g
   id="g26">
</g>
<g
   id="g28">
</g>
<g
   id="g30">
</g>
<g
   id="g32">
</g>
<g
   id="g34">
</g>
<g
   id="g36">
</g>
<g
   id="g38">
</g>
<g
   id="g40">
</g>
<g
   id="g42">
</g>
<g
   id="g44">
</g>
<g
   id="g46">
</g>
<path
   style="opacity:1;fill:#00ff00;fill-opacity:1;stroke:none;stroke-width:0.01320593;stroke-miterlimit:4;stroke-dasharray:none;stroke-dashoffset:0;stroke-opacity:1;paint-order:stroke fill markers"
   d="M 5.8572396,28.085539 C 5.3559105,27.779847 5.0821688,27.083707 5.26952,26.590936 5.3394435,26.407023 6.6247521,24.496809 8.1257613,22.346015 l 2.7291077,-3.910533 h 4.720982 4.720982 l 2.733029,3.902044 c 1.503166,2.146124 2.791692,4.056338 2.863391,4.24492 0.190772,0.50177 -0.07866,1.194657 -0.584492,1.503093 -0.399347,0.243507 -0.779216,0.253405 -9.725761,0.253405 -8.9465445,0 -9.3264138,-0.0099 -9.7257604,-0.253405 z m 4.9665224,-1.129593 c 0.854887,-0.442079 1.230667,-1.389234 0.882127,-2.223407 -0.521413,-1.247917 -2.4629521,-1.369163 -3.0717761,-0.191827 -0.7761275,1.500865 0.7348696,3.16753 2.1896491,2.415234 z m 10.77394,-1.05311 c 0.17828,-0.17828 0.324146,-0.448401 0.324146,-0.60027 0,-0.364387 -0.571236,-0.924415 -0.942916,-0.924415 -0.403177,0 -0.905915,0.502735 -0.905915,0.905909 0,0.427284 0.485281,0.942922 0.887408,0.942922 0.172223,0 0.458996,-0.145866 0.637277,-0.324146 z m -6.388263,-0.15853 c 0.473022,-0.428079 0.155871,-1.366155 -0.461879,-1.366155 -0.646159,0 -0.980501,0.846202 -0.530715,1.34321 0.271798,0.300333 0.675764,0.309672 0.992594,0.02294 z m 2.74537,-3.142618 c 0.314634,-0.379112 -0.119426,-0.960616 -0.583981,-0.782349 -0.480475,0.184375 -0.323956,0.9741 0.193062,0.9741 0.127478,0 0.303392,-0.08629 0.390919,-0.191751 z m -2.051093,-2.12872 c 0.260629,-0.260629 0.260629,-0.380801 0,-0.641431 -0.16774,-0.167739 -0.542415,-0.207522 -1.954478,-0.207522 -1.780863,0 -2.063899,0.07244 -2.063899,0.528238 0,0.455796 0.283036,0.528237 2.063899,0.528237 1.412063,0 1.786738,-0.03978 1.954478,-0.207522 z"
   id="path873"
   inkscape:connector-curvature="0"
   inkscape:export-xdpi="500"
   inkscape:export-ydpi="500" /><path
   style="fill:#000000;fill-opacity:1;stroke-width:0.1;stroke-miterlimit:4;stroke-dasharray:none"
   inkscape:connector-curvature="0"
   id="path875"
   d="m -13.147509,24.561 -7.717,-11.044 V 3.442 c 0.575,-0.197 0.99,-0.744 0.99,-1.386 V 1.464 c 0.001,-0.807 -0.655,-1.464 -1.462,-1.464 h -8.523 c -0.807,0 -1.464,0.657 -1.464,1.464 v 0.593 c 0,0.642 0.416,1.189 0.992,1.386 v 10 l -7.76,11.118 c -0.898,1.289 -1.006,2.955 -0.28,4.348 0.727,1.393 2.154,2.258 3.725,2.258 h 18.056 c 1.571,0 2.999,-0.866 3.725,-2.259 0.725,-1.394 0.617,-3.06 -0.282,-4.347 z m -10.55,-21.513 v 11.21 c 0,0.097 0.029,0.191 0.085,0.27 l 2.028,2.904 h -8.077 l 0.906,-1.298 h 3.135 c 0.261,0 0.472,-0.211 0.472,-0.473 0,-0.261 -0.211,-0.472 -0.472,-0.472 h -2.476 l 0.512,-0.733 c 0.055,-0.08 0.084,-0.173 0.084,-0.271 v -0.294 h 1.879 c 0.261,0 0.472,-0.211 0.472,-0.472 0,-0.261 -0.211,-0.472 -0.472,-0.472 h -1.879 v -1.299 h 1.879 c 0.261,0 0.472,-0.211 0.472,-0.472 0,-0.261 -0.211,-0.472 -0.472,-0.472 h -1.879 V 9.405 h 1.879 c 0.261,0 0.472,-0.211 0.472,-0.472 0,-0.261 -0.211,-0.473 -0.472,-0.473 h -1.879 V 7.162 h 1.879 c 0.261,0 0.472,-0.211 0.472,-0.472 0,-0.261 -0.211,-0.472 -0.472,-0.472 h -1.879 v -3.17 z m 8.32,24.55 c -0.236,0.453 -0.702,0.734 -1.213,0.734 h -18.056 c -0.511,0 -0.976,-0.282 -1.212,-0.734 -0.237,-0.453 -0.202,-0.994 0.09,-1.414 l 5.448,-7.807 h 9.396 l 5.454,7.805 c 0.293,0.42 0.328,0.963 0.093,1.416 z"
   inkscape:export-xdpi="500"
   inkscape:export-ydpi="500" /><path
   inkscape:connector-curvature="0"
   id="path877"
   d="m -25.619509,19.676 h -3.272 c -0.261,0 -0.472,0.211 -0.472,0.473 0,0.261 0.211,0.472 0.472,0.472 h 3.272 c 0.261,0 0.472,-0.211 0.472,-0.472 0.001,-0.262 -0.21,-0.473 -0.472,-0.473 z"
   inkscape:export-xdpi="500"
   inkscape:export-ydpi="500" /><circle
   id="circle879"
   r="1.726"
   cy="25.402"
   cx="-31.08951"
   inkscape:export-xdpi="500"
   inkscape:export-ydpi="500" /><circle
   id="circle881"
   r="0.51200002"
   cy="22.320999"
   cx="-23.62851"
   inkscape:export-xdpi="500"
   inkscape:export-ydpi="500" /><circle
   id="circle883"
   r="0.90399998"
   cy="25.302"
   cx="-20.22551"
   inkscape:export-xdpi="500"
   inkscape:export-ydpi="500" /><circle
   id="circle885"
   r="0.77600002"
   cy="25.174"
   cx="-26.479509"
   inkscape:export-xdpi="500"
   inkscape:export-ydpi="500" /><path
   inkscape:connector-curvature="0"
   id="path887"
   d="m -35.345269,28.085539 c -0.501329,-0.305692 -0.775071,-1.001832 -0.58772,-1.494603 0.06992,-0.183913 1.355232,-2.094127 2.856241,-4.244921 l 2.729108,-3.910533 h 4.720982 4.720982 l 2.733029,3.902044 c 1.503166,2.146124 2.791692,4.056338 2.863391,4.24492 0.190772,0.50177 -0.07866,1.194657 -0.584492,1.503093 -0.399347,0.243507 -0.779216,0.253405 -9.725761,0.253405 -8.946544,0 -9.326414,-0.0099 -9.72576,-0.253405 z m 4.966522,-1.129593 c 0.854887,-0.442079 1.230667,-1.389234 0.882127,-2.223407 -0.521413,-1.247917 -2.462952,-1.369163 -3.071776,-0.191827 -0.776128,1.500865 0.73487,3.16753 2.189649,2.415234 z m 10.77394,-1.05311 c 0.17828,-0.17828 0.324146,-0.448401 0.324146,-0.60027 0,-0.364387 -0.571236,-0.924415 -0.942916,-0.924415 -0.403177,0 -0.905915,0.502735 -0.905915,0.905909 0,0.427284 0.485281,0.942922 0.887408,0.942922 0.172223,0 0.458996,-0.145866 0.637277,-0.324146 z m -6.388263,-0.15853 c 0.473022,-0.428079 0.155871,-1.366155 -0.461879,-1.366155 -0.646159,0 -0.980501,0.846202 -0.530715,1.34321 0.271798,0.300333 0.675764,0.309672 0.992594,0.02294 z m 2.74537,-3.142618 c 0.314634,-0.379112 -0.119426,-0.960616 -0.583981,-0.782349 -0.480475,0.184375 -0.323956,0.9741 0.193062,0.9741 0.127478,0 0.303392,-0.08629 0.390919,-0.191751 z m -2.051093,-2.12872 c 0.260629,-0.260629 0.260629,-0.380801 0,-0.641431 -0.16774,-0.167739 -0.542415,-0.207522 -1.954478,-0.207522 -1.780863,0 -2.063899,0.07244 -2.063899,0.528238 0,0.455796 0.283036,0.528237 2.063899,0.528237 1.412063,0 1.786738,-0.03978 1.954478,-0.207522 z"
   style="opacity:1;fill:#00ffff;fill-opacity:1;stroke:none;stroke-width:0.01320593;stroke-miterlimit:4;stroke-dasharray:none;stroke-dashoffset:0;stroke-opacity:1;paint-order:stroke fill markers"
   inkscape:export-xdpi="500"
   inkscape:export-ydpi="500" /><path
   d="m 71.370458,24.561 -7.717,-11.044 V 3.442 c 0.575,-0.197 0.99,-0.744 0.99,-1.386 V 1.464 C 64.644458,0.657 63.988458,0 63.181458,0 h -8.523 c -0.807,0 -1.464,0.657 -1.464,1.464 v 0.593 c 0,0.642 0.416,1.189 0.992,1.386 v 10 l -7.76,11.118 c -0.898,1.289 -1.006,2.955 -0.28,4.348 0.727,1.393 2.154,2.258 3.725,2.258 h 18.056 c 1.571,0 2.999,-0.866 3.725,-2.259 0.725,-1.394 0.617,-3.06 -0.282,-4.347 z m -10.55,-21.513 v 11.21 c 0,0.097 0.029,0.191 0.085,0.27 l 2.028,2.904 h -8.077 l 0.906,-1.298 h 3.135 c 0.261,0 0.472,-0.211 0.472,-0.473 0,-0.261 -0.211,-0.472 -0.472,-0.472 h -2.476 l 0.512,-0.733 c 0.055,-0.08 0.084,-0.173 0.084,-0.271 v -0.294 h 1.879 c 0.261,0 0.472,-0.211 0.472,-0.472 0,-0.261 -0.211,-0.472 -0.472,-0.472 h -1.879 v -1.299 h 1.879 c 0.261,0 0.472,-0.211 0.472,-0.472 0,-0.261 -0.211,-0.472 -0.472,-0.472 h -1.879 V 9.405 h 1.879 c 0.261,0 0.472,-0.211 0.472,-0.472 0,-0.261 -0.211,-0.473 -0.472,-0.473 h -1.879 V 7.162 h 1.879 c 0.261,0 0.472,-0.211 0.472,-0.472 0,-0.261 -0.211,-0.472 -0.472,-0.472 h -1.879 v -3.17 z m 8.32,24.55 c -0.236,0.453 -0.702,0.734 -1.213,0.734 h -18.056 c -0.511,0 -0.976,-0.282 -1.212,-0.734 -0.237,-0.453 -0.202,-0.994 0.09,-1.414 l 5.448,-7.807 h 9.396 l 5.454,7.805 c 0.293,0.42 0.328,0.963 0.093,1.416 z"
   id="path889"
   inkscape:connector-curvature="0"
   style="fill:#000000;fill-opacity:1;stroke-width:0.1;stroke-miterlimit:4;stroke-dasharray:none"
   inkscape:export-xdpi="500"
   inkscape:export-ydpi="500" /><path
   d="m 58.898458,19.676 h -3.272 c -0.261,0 -0.472,0.211 -0.472,0.473 0,0.261 0.211,0.472 0.472,0.472 h 3.272 c 0.261,0 0.472,-0.211 0.472,-0.472 10e-4,-0.262 -0.21,-0.473 -0.472,-0.473 z"
   id="path891"
   inkscape:connector-curvature="0"
   inkscape:export-xdpi="500"
   inkscape:export-ydpi="500" /><circle
   cx="53.428455"
   cy="25.402"
   r="1.726"
   id="circle893"
   inkscape:export-xdpi="500"
   inkscape:export-ydpi="500" /><circle
   cx="60.889458"
   cy="22.320999"
   r="0.51200002"
   id="circle895"
   inkscape:export-xdpi="500"
   inkscape:export-ydpi="500" /><circle
   cx="64.292458"
   cy="25.302"
   r="0.90399998"
   id="circle897"
   inkscape:export-xdpi="500"
   inkscape:export-ydpi="500" /><circle
   cx="58.038456"
   cy="25.174"
   r="0.77600002"
   id="circle899"
   inkscape:export-xdpi="500"
   inkscape:export-ydpi="500" /><path
   style="opacity:1;fill:#800080;fill-opacity:1;stroke:none;stroke-width:0.01320593;stroke-miterlimit:4;stroke-dasharray:none;stroke-dashoffset:0;stroke-opacity:1;paint-order:stroke fill markers"
   d="m 49.172698,28.085539 c -0.501329,-0.305692 -0.775071,-1.001832 -0.58772,-1.494603 0.06992,-0.183913 1.355232,-2.094127 2.856241,-4.244921 l 2.729108,-3.910533 h 4.720982 4.720982 l 2.733029,3.902044 c 1.503166,2.146124 2.791692,4.056338 2.863391,4.24492 0.190772,0.50177 -0.07866,1.194657 -0.584492,1.503093 -0.399347,0.243507 -0.779216,0.253405 -9.725761,0.253405 -8.946544,0 -9.326414,-0.0099 -9.72576,-0.253405 z m 4.966522,-1.129593 c 0.854887,-0.442079 1.230667,-1.389234 0.882127,-2.223407 -0.521413,-1.247917 -2.462952,-1.369163 -3.071776,-0.191827 -0.776128,1.500865 0.73487,3.16753 2.189649,2.415234 z m 10.77394,-1.05311 c 0.17828,-0.17828 0.324146,-0.448401 0.324146,-0.60027 0,-0.364387 -0.571236,-0.924415 -0.942916,-0.924415 -0.403177,0 -0.905915,0.502735 -0.905915,0.905909 0,0.427284 0.485281,0.942922 0.887408,0.942922 0.172223,0 0.458996,-0.145866 0.637277,-0.324146 z m -6.388263,-0.15853 c 0.473022,-0.428079 0.155871,-1.366155 -0.461879,-1.366155 -0.646159,0 -0.980501,0.846202 -0.530715,1.34321 0.271798,0.300333 0.675764,0.309672 0.992594,0.02294 z m 2.74537,-3.142618 c 0.314634,-0.379112 -0.119426,-0.960616 -0.583981,-0.782349 -0.480475,0.184375 -0.323956,0.9741 0.193062,0.9741 0.127478,0 0.303392,-0.08629 0.390919,-0.191751 z m -2.051093,-2.12872 c 0.260629,-0.260629 0.260629,-0.380801 0,-0.641431 -0.16774,-0.167739 -0.542415,-0.207522 -1.954478,-0.207522 -1.780863,0 -2.063899,0.07244 -2.063899,0.528238 0,0.455796 0.283036,0.528237 2.063899,0.528237 1.412063,0 1.786738,-0.03978 1.954478,-0.207522 z"
   id="path901"
   inkscape:connector-curvature="0"
   inkscape:export-xdpi="500"
   inkscape:export-ydpi="500" /></svg>