<?xml version="1.0" encoding="UTF-8" standalone="no"?>
<!-- Generator: Adobe Illustrator 19.0.0, SVG Export Plug-In . SVG Version: 6.00 Build 0)  -->

<svg
   xmlns:dc="http://purl.org/dc/elements/1.1/"
   xmlns:cc="http://creativecommons.org/ns#"
   xmlns:rdf="http://www.w3.org/1999/02/22-rdf-syntax-ns#"
   xmlns:svg="http://www.w3.org/2000/svg"
   xmlns="http://www.w3.org/2000/svg"
   xmlns:xlink="http://www.w3.org/1999/xlink"
   xmlns:sodipodi="http://sodipodi.sourceforge.net/DTD/sodipodi-0.dtd"
   xmlns:inkscape="http://www.inkscape.org/namespaces/inkscape"
   version="1.1"
   id="Layer_1"
   x="0px"
   y="0px"
   viewBox="0 0 471.1 471.1"
   style="enable-background:new 0 0 471.1 471.1;"
   xml:space="preserve"
   sodipodi:docname="thermometer-svgrepo-com.svg"
   inkscape:version="0.92.3 (2405546, 2018-03-11)"><metadata
   id="metadata67"><rdf:RDF><cc:Work
       rdf:about=""><dc:format>image/svg+xml</dc:format><dc:type
         rdf:resource="http://purl.org/dc/dcmitype/StillImage" /></cc:Work></rdf:RDF></metadata><defs
   id="defs65"><linearGradient
   inkscape:collect="always"
   id="linearGradient4613"><stop
     style="stop-color:#0000ff;stop-opacity:1"
     offset="0"
     id="stop4609" /><stop
     style="stop-color:#ff0000;stop-opacity:1"
     offset="1"
     id="stop4611" /></linearGradient>
	

		
	<linearGradient
   inkscape:collect="always"
   xlink:href="#linearGradient4613"
   id="linearGradient4615"
   x1="179.76578"
   y1="450.50195"
   x2="187.95"
   y2="20.1"
   gradientUnits="userSpaceOnUse" /></defs><sodipodi:namedview
   pagecolor="#ffffff"
   bordercolor="#666666"
   borderopacity="1"
   objecttolerance="10"
   gridtolerance="10"
   guidetolerance="10"
   inkscape:pageopacity="0"
   inkscape:pageshadow="2"
   inkscape:window-width="1920"
   inkscape:window-height="986"
   id="namedview63"
   showgrid="false"
   inkscape:zoom="0.70845764"
   inkscape:cx="922.67346"
   inkscape:cy="227.61826"
   inkscape:window-x="-11"
   inkscape:window-y="1609"
   inkscape:window-maximized="1"
   inkscape:current-layer="g26" />
<g
   id="g26"
   transform="translate(0,-540.36)">
			
			<polygon
   points=""
   id="polygon4" />
			
			
			
			
			
			
			
			
			
			
		<g
   id="g858"
   inkscape:export-xdpi="500"
   inkscape:export-ydpi="500"><path
     inkscape:connector-curvature="0"
     id="path2"
     d="m 197.95,877.26 v -221.8 c 0,-5.5 -4.5,-10 -10,-10 -5.5,0 -10,4.5 -10,10 v 221.8 c -19.9,4.6 -34.7,22.3 -34.7,43.6 0,24.6 20.1,44.7 44.7,44.7 24.6,0 44.7,-20 44.7,-44.7 0.1,-21.3 -14.8,-39.1 -34.7,-43.6 z m -10,68.2 c -13.6,0 -24.7,-11.1 -24.7,-24.7 0,-13.6 11.1,-24.7 24.7,-24.7 13.6,0 24.7,11.1 24.7,24.7 0.1,13.7 -11,24.7 -24.7,24.7 z" /><path
     style="fill:#000000;fill-opacity:1"
     inkscape:connector-curvature="0"
     id="path6"
     d="m 244.25,846.36 v -250 c 0,-30.9 -25.2,-56 -56.3,-56 -31.1,0 -56.3,25.1 -56.3,56 v 250 c -29.9,23.6 -42.3,63.4 -31,100.8 5.8,18.7 17.2,34.7 33,46.4 15.9,11.7 34.6,17.9 54.3,17.9 19.7,0 38.5,-6.2 54.3,-17.9 15.8,-11.7 27.2,-27.7 33,-46.5 11.3,-37.3 -1.2,-77.1 -31,-100.7 z m 11.7,94.9 c -9.3,30 -36.6,50.2 -68.1,50.2 -31.5,0 -58.8,-20.1 -68.1,-50.1 -9.3,-30.8 1.8,-63.6 27.6,-81.7 2.7,-1.9 4.3,-4.9 4.3,-8.2 v -255 c 0,-19.5 16.7,-36 36.3,-36 v 0 c 19.7,0 36.3,16.5 36.1,35.9 v 255 c 0,3.3 1.6,6.3 4.3,8.2 25.8,18.1 36.9,51 27.6,81.7 z" /><path
     inkscape:connector-curvature="0"
     id="path10"
     d="m 288.45,540.46 c -18.5,0 -33.6,15 -33.6,33.4 v 11.3 c 0,18.4 15.1,33.4 33.6,33.4 18.5,0 33.6,-15 33.6,-33.4 v -11.3 c 0,-18.4 -15.1,-33.4 -33.6,-33.4 z m 13.6,44.7 c 0,7.5 -6,13.4 -13.6,13.4 -7.6,0 -13.6,-5.9 -13.6,-13.4 v -11.3 c 0,-7.5 6,-13.4 13.6,-13.4 7.6,0 13.6,5.9 13.6,13.4 z" /><path
     inkscape:connector-curvature="0"
     id="path12"
     d="m 84.15,841.46 h -57.6 c -5.5,0 -10,4.5 -10,10 0,5.5 4.5,10 10,10 h 57.6 c 5.5,0 10,-4.5 10,-10 0,-5.5 -4.5,-10 -10,-10 z" /><path
     inkscape:connector-curvature="0"
     id="path14"
     d="m 84.15,702.66 h -34.9 c -5.5,0 -10,4.5 -10,10 0,5.5 4.5,10 10,10 h 34.9 c 5.5,0 10,-4.5 10,-10 0,-5.5 -4.5,-10 -10,-10 z" /><path
     inkscape:connector-curvature="0"
     id="path16"
     d="m 84.15,656.66 h -57.6 c -5.5,0 -10,4.5 -10,10 0,5.5 4.5,10 10,10 h 57.6 c 5.5,0 10,-4.5 10,-10 0,-5.5 -4.5,-10 -10,-10 z" /><path
     inkscape:connector-curvature="0"
     id="path18"
     d="m 84.15,609.86 h -34.9 c -5.5,0 -10,4.5 -10,10 0,5.5 4.5,10 10,10 h 34.9 c 5.5,0 10,-4.5 10,-10 0,-5.5 -4.5,-10 -10,-10 z" /><path
     inkscape:connector-curvature="0"
     id="path20"
     d="m 84.15,563.86 h -57.6 c -5.5,0 -10,4.5 -10,10 0,5.5 4.5,10 10,10 h 57.6 c 5.5,0 10,-4.5 10,-10 0,-5.5 -4.5,-10 -10,-10 z" /><path
     inkscape:connector-curvature="0"
     id="path22"
     d="m 84.15,795.46 h -34.9 c -5.5,0 -10,4.5 -10,10 0,5.5 4.5,10 10,10 h 34.9 c 5.5,0 10,-4.5 10,-10 0,-5.5 -4.5,-10 -10,-10 z" /><path
     inkscape:connector-curvature="0"
     id="path24"
     d="m 84.15,748.66 h -57.6 c -5.5,0 -10,4.5 -10,10 0,5.5 4.5,10 10,10 h 57.6 c 5.5,0 10,-4.5 10,-10 0,-5.5 -4.5,-10 -10,-10 z" /><path
     transform="translate(0,540.36)"
     inkscape:connector-curvature="0"
     id="path4607"
     d="m 179.76578,450.502 c -23.13979,-2.69167 -43.54938,-16.47724 -54.52785,-36.83061 -11.67137,-21.63797 -11.20795,-50.22595 1.15617,-71.3221 4.97398,-8.48682 8.33142,-12.18788 21.65206,-23.86809 1.79989,-1.57824 2.89853,-3.28323 3.33552,-5.17642 0.3854,-1.66969 0.6585,-55.89663 0.66845,-132.73094 0.0152,-117.381648 0.12651,-130.277531 1.15419,-133.741234 3.99405,-13.461617 15.36979,-23.640223 29.17862,-26.107998 16.34755,-2.92147 32.9876,7.023924 39.63033,23.686187 l 1.68819,4.234551 0.35288,133.035474 0.35288,133.03548 1.63601,2.29371 c 0.89981,1.26155 1.88352,2.29372 2.18602,2.29372 1.49857,0 11.67293,9.73832 15.59856,14.93004 5.09137,6.73346 10.53589,17.60157 12.63,25.21145 5.43537,19.75186 2.12907,41.85659 -8.79772,58.81845 -11.9771,18.59225 -30.55067,29.94004 -52.89473,32.31679 -7.13287,0.75873 -7.83392,0.75506 -14.99958,-0.0785 z m 21.70429,-27.34963 c 9.6682,-3.11134 19.5242,-10.88385 24.61486,-19.41144 7.96947,-13.34998 8.60203,-29.74829 1.68506,-43.68217 -4.75088,-9.57039 -16.49136,-19.39374 -26.82924,-22.44825 l -2.99948,-0.88625 V 224.78581 c 0,-107.84618 -0.0481,-112.02837 -1.31489,-114.39761 -1.74374,-3.26116 -5.10578,-5.16248 -9.02392,-5.10325 -3.65029,0.0552 -6.12359,1.47707 -8.04196,4.62329 -1.34783,2.21051 -1.37524,4.48876 -1.37783,114.5357 l -0.003,112.28032 -2.99948,0.89247 c -14.77204,4.39527 -26.71767,16.867 -30.64579,31.99545 -1.8119,6.97819 -1.48212,17.22659 0.78194,24.30046 4.87141,15.22031 18.01863,27.06596 33.92196,30.5637 4.80314,1.05639 17.11265,0.32331 22.2314,-1.32397 z"
     style="opacity:1;fill:url(#linearGradient4615);fill-opacity:1;stroke:none;stroke-width:0.07057585;stroke-miterlimit:4;stroke-dasharray:none;stroke-dashoffset:0;stroke-opacity:1;paint-order:stroke fill markers" /><text
     id="text4619"
     y="731.99438"
     x="307.10748"
     style="font-style:normal;font-weight:normal;font-size:133.33332825px;line-height:1.25;font-family:sans-serif;letter-spacing:0px;word-spacing:0px;fill:#000000;fill-opacity:1;stroke:none"
     xml:space="preserve"><tspan
       style="font-style:normal;font-variant:normal;font-weight:bold;font-stretch:normal;font-size:133.33332825px;font-family:sans-serif;-inkscape-font-specification:'sans-serif Bold'"
       y="731.99438"
       x="307.10748"
       id="tspan4617"
       sodipodi:role="line">K</tspan></text>
</g>
</g>
<g
   id="g32">
</g>
<g
   id="g34">
</g>
<g
   id="g36">
</g>
<g
   id="g38">
</g>
<g
   id="g40">
</g>
<g
   id="g42">
</g>
<g
   id="g44">
</g>
<g
   id="g46">
</g>
<g
   id="g48">
</g>
<g
   id="g50">
</g>
<g
   id="g52">
</g>
<g
   id="g54">
</g>
<g
   id="g56">
</g>
<g
   id="g58">
</g>
<g
   id="g60">
</g>
</svg>